<?xml version="1.0" encoding="utf-8"?>
<!-- Generator: Adobe Illustrator 17.0.0, SVG Export Plug-In . SVG Version: 6.00 Build 0)  -->
<!DOCTYPE svg PUBLIC "-//W3C//DTD SVG 1.1//EN" "http://www.w3.org/Graphics/SVG/1.1/DTD/svg11.dtd">
<svg version="1.1" id="Layer_1" xmlns="http://www.w3.org/2000/svg" xmlns:xlink="http://www.w3.org/1999/xlink" x="0px" y="0px"
	 width="185px" height="85px" viewBox="0 0 185 85" enable-background="new 0 0 185 85" xml:space="preserve">
<g>
	<g>
		<g>
			<path fill="none" d="M18.553,26.25c-0.596,0.23-1.08,0.54-1.455,0.932c-0.877,0.917-1.314,2.06-1.314,3.434
				c0,1.44,0.531,2.617,1.596,3.532c0.376,0.328,0.829,0.573,1.361,0.736c0.531,0.164,1.298,0.245,2.3,0.245h27.886
				c0.908,0,1.781,0.035,2.618,0.105c0.448-2.523,1.175-4.945,2.183-7.267c0.305-0.703,0.629-1.389,0.973-2.06h-33.66
				C19.976,25.906,19.147,26.021,18.553,26.25z"/>
			<path display="none" fill="#9B8530" d="M68.41,61.713c0.845-2.223,1.268-4.545,1.268-6.966c0-2.615-0.486-5.102-1.455-7.456
				c-0.971-2.355-2.3-4.447-3.99-6.279c-1.69-1.83-3.772-3.287-6.244-4.366c-1.844-0.804-3.991-1.309-6.442-1.514
				c-0.36,2.026-0.54,4.117-0.54,6.272c0,4.383,0.719,8.471,2.16,12.264c1.439,3.794,3.442,7.162,6.009,10.105
				c1.544,1.751,3.26,3.308,5.149,4.671c0.226-0.243,0.446-0.491,0.66-0.746C66.422,65.932,67.565,63.937,68.41,61.713z"/>
			<path display="none" fill="#9B8530" d="M54.701,25.805h11.972V12.8c-1.985,1.188-3.797,2.579-5.433,4.175
				C58.583,19.534,56.403,22.478,54.701,25.805z"/>
			<g>
				<g>
					<g>
						<g>
							<path fill="#5CB1DB" d="M80.949,47.242c0-11.609,11.212-16.614,21.309-16.614c10.403,0,21.402,5.203,21.402,17.017
								c0,11.709-11.204,17.022-21.502,17.022C91.953,64.668,80.949,58.56,80.949,47.242"/>
						</g>
						<g>
							<path fill="#5CB1DB" d="M92.555,5.792c20.952,0,41.476,13.381,41.832,35.821c0.016,1.014-0.493,1.916-0.572,2.891
								c-1.969-15.298-16.591-23.884-31.563-23.884c-16.31,0-31.917,9.212-31.917,27.135c0,17.618,15.608,28.13,32.013,28.13
								c1.594,0,3.171-0.104,4.731-0.295c-4.575,1.413-9.452,2.153-14.397,2.153c-21.349,0-41.662-13.691-41.662-36.626
								C51.02,17.787,71.333,5.792,92.555,5.792"/>
						</g>
					</g>
				</g>
				<path fill="#C4D12E" d="M151.003,8.346h-29.049l0.001-0.001l-20.388,0.001v65.623h20.394l-0.008-14.032h34.385
					c14.432,0,18.754-11.318,18.754-21.175v-7.78C175.092,18.019,170.403,8.346,151.003,8.346z M156.086,35.065
					c0,3.927-1.839,8.444-6.619,8.444h-27.488V24.776h25.74c6.16,0,8.367,2.556,8.367,7.025V35.065z"/>
			</g>
			<g>
				<path fill="none" d="M28.857,26.006c-0.59,0.228-1.07,0.535-1.442,0.923c-0.869,0.908-1.302,2.041-1.302,3.401
					c0,1.426,0.526,2.592,1.581,3.499c0.372,0.325,0.821,0.568,1.349,0.729c0.526,0.163,1.286,0.243,2.279,0.243h20.227
					c0.576-3.327,1.609-6.373,3.022-9.135H31.322C30.267,25.666,29.446,25.78,28.857,26.006z"/>
				<path fill="#FBB516" d="M51.549,34.802H31.322c-0.993,0-1.753-0.08-2.279-0.243c-0.528-0.161-0.977-0.404-1.349-0.729
					c-1.055-0.907-1.581-2.073-1.581-3.499c0-1.361,0.433-2.493,1.302-3.401c0.372-0.389,0.852-0.695,1.442-0.923
					c0.588-0.226,1.41-0.34,2.465-0.34h23.249c4.366-8.532,12.365-14.356,21.78-17.396H30.392c-4.217,0-7.596,0.535-10.138,1.604
					c-2.543,1.069-4.65,2.512-6.324,4.325c-1.674,1.815-2.992,3.888-3.953,6.22c-0.962,2.332-1.442,4.827-1.442,7.483
					c0,2.721,0.465,5.233,1.395,7.532c0.93,2.301,2.232,4.358,3.906,6.171c1.674,1.815,3.797,3.256,6.371,4.325
					c2.572,1.069,5.967,1.604,10.184,1.604h21.186c-0.366-2.049-0.558-4.189-0.558-6.416C51.02,38.91,51.202,36.805,51.549,34.802z"
					/>
				<path fill="#FBB516" d="M54.854,57.155H10.21v16.813h48.736c3.72,0,6.867-0.615,9.44-1.847c0.282-0.135,0.559-0.276,0.831-0.421
					C63.133,68.222,58.079,63.311,54.854,57.155z"/>
				<path fill="#FBB516" d="M76.497,64.828c0.68-1.121,1.263-2.318,1.747-3.592c0.837-2.202,1.256-4.502,1.256-6.9
					c0-2.591-0.481-5.054-1.442-7.386c-0.962-2.332-2.279-4.405-3.953-6.22c-0.686-0.743-1.439-1.423-2.256-2.042
					c-0.978,2.721-1.515,5.744-1.515,9.067C70.335,54.578,72.676,60.334,76.497,64.828z"/>
				<path fill="#9B8530" d="M58.945,34.802h-7.397c-0.347,2.003-0.529,4.108-0.529,6.315c0,2.228,0.192,4.367,0.558,6.416h4.391
					c1.24,0,2.186,0.114,2.837,0.34c0.651,0.228,1.193,0.6,1.628,1.118c0.868,0.908,1.302,2.074,1.302,3.499
					c0,1.166-0.342,2.172-1.023,3.013c-0.435,0.519-1.009,0.923-1.721,1.215c-0.714,0.292-1.721,0.437-3.023,0.437h-1.115
					c3.225,6.157,8.279,11.067,14.362,14.546c2.209-1.177,4.087-2.689,5.633-4.535c0.602-0.738,1.151-1.518,1.648-2.337
					c-3.821-4.494-6.162-10.25-6.162-17.073c0-3.323,0.537-6.346,1.515-9.067c-1.175-0.89-2.484-1.652-3.929-2.283
					C65.47,35.336,62.479,34.802,58.945,34.802z"/>
				<path fill="#9B8530" d="M54.571,25.666h21.953V8.27h-0.173C66.936,11.31,58.937,17.134,54.571,25.666z"/>
			</g>
		</g>
		<text transform="matrix(0.9242 0 0 1 121.8156 77.6374)" fill="#5CB1DB" font-family="'MyriadPro-Bold'" font-size="6.2831">SOFTPOINT AUTO-ID </text>
	</g>
	<g>
		<path fill="#609941" d="M123.66,47.646c0-11.814-11-17.017-21.402-17.017c-0.23,0-0.46,0.003-0.69,0.008v34.024
			c0.197,0.005,0.394,0.007,0.591,0.007C112.456,64.668,123.66,59.356,123.66,47.646z"/>
		<g>
			<path fill="none" d="M121.979,26.201c5.993,3.89,10.409,9.74,11.68,17.307h0.357c0.171-0.618,0.381-1.233,0.371-1.895
				c-0.101-6.378-1.835-12.022-4.742-16.837h-7.666V26.201z"/>
			<path fill="none" d="M70.335,47.755c0-17.671,15.172-26.868,31.231-27.123V8.346l6.633,0c-4.968-1.675-10.291-2.554-15.644-2.554
				c-21.222,0-41.535,11.995-41.535,35.325c0,22.935,20.313,36.626,41.662,36.626c4.945,0,9.822-0.74,14.397-2.153
				c-1.56,0.191-3.137,0.295-4.731,0.295C85.943,75.885,70.335,65.373,70.335,47.755z"/>
			<path fill="#C4D12E" d="M133.815,44.504c0.027-0.338,0.11-0.667,0.201-0.996h-0.357
				C133.715,43.838,133.772,44.167,133.815,44.504z"/>
			<path fill="#609941" d="M101.566,20.632c0.229-0.004,0.457-0.012,0.686-0.012c7.091,0,14.1,1.929,19.727,5.581v-1.425h7.666
				c-4.707-7.798-12.496-13.413-21.446-16.431l-6.633,0V20.632z"/>
		</g>
	</g>
</g>
</svg>
