<?xml version="1.0" encoding="utf-8"?>
<!-- Generator: Adobe Illustrator 17.0.0, SVG Export Plug-In . SVG Version: 6.00 Build 0)  -->
<!DOCTYPE svg PUBLIC "-//W3C//DTD SVG 1.1//EN" "http://www.w3.org/Graphics/SVG/1.1/DTD/svg11.dtd">
<svg version="1.1" id="Layer_1" xmlns="http://www.w3.org/2000/svg" xmlns:xlink="http://www.w3.org/1999/xlink" x="0px" y="0px"
	 width="100px" height="100px" viewBox="0 0 100 100" enable-background="new 0 0 100 100" xml:space="preserve">
<g>
	<g>
		<g>
			<g>
				<g>
					<g>
						<path fill="#FFFFFF" d="M46.438,43.731c-0.012-1.379-4.553-4.203-7.062-4.193v-3.684c0.044,0.003,0.068,0.006,0.068,0.006
							s4.367-8.324,1.91-12.008c-2.456-3.684-8.331-3.775-12.281-3.548c-16.893,0.972-7.809,13.526-5.619,16.261l0.676,6.034
							c-0.01,0.04-0.014,0.079-0.008,0.119c0.009,0.051,0.022,0.104,0.039,0.158l0.056,0.501L20.16,59.403l1.587,0.402l2.964-11.708
							l4.757,1.199L27.712,69.46l1.631,0.142L30.589,55.3l5.149-4.424l2,0.504v6.382h1.638v-5.969l6.341,1.598l2.164,13.102
							l1.616-0.267L45.946,44.72C46.264,44.426,46.441,44.098,46.438,43.731z M31.284,47.327c0.071-0.001,0.142-0.001,0.212-0.005
							c1.203-0.067,3.662-0.172,6.243-0.441v0.116l-2.424,2.082l-4.094-1.032L31.284,47.327z M32.076,35.86
							c2.336-0.151,4.338-0.135,5.663-0.091v3.906c-3.069,0.315-9.187,1.099-12.061,2.028l-0.548-4.885
							C26.628,36.514,29.293,36.039,32.076,35.86z M25.114,46.509l0.449-1.772c1.061,0.972,2.574,1.927,4.098,2.356l-0.048,0.55
							L25.114,46.509z M30.793,52.966l0.284-3.265l2.718,0.685L30.793,52.966z M37.258,49.57l0.481-0.413v0.534L37.258,49.57z
							 M45.427,51.628l-6.05-1.525v-3.415c1.895-0.252,3.727-0.607,5.05-1.114L45.427,51.628z"/>
					</g>
					<g>
						<path d="M41.195,31.092c-5.29,1.193-9.208,3.082-9.856,5.611h-0.096v2.541c0,3.688,6.686,6.15,14.94,7.231"/>
					</g>
				</g>
			</g>
			<g>
				<ellipse fill="#ED1C24" cx="56.297" cy="37.644" rx="23.547" ry="7.222"/>
				<g>
					<path fill="#F1F2F2" d="M53.626,47.063v23.493l-5.842-2.735c-0.365-0.171-0.791-0.262-1.229-0.262
						c-0.762,0-1.464,0.27-1.88,0.721l-0.121,0.131c-0.679,0.738-0.39,1.732,0.644,2.216l6.607,3.093l-6.607,3.093
						c-1.035,0.485-1.324,1.479-0.644,2.217l0.12,0.131c0.416,0.451,1.119,0.721,1.881,0.721c0.438,0,0.863-0.091,1.229-0.262
						l7.472-3.498c0.268,0.05,0.548,0.079,0.84,0.079s0.572-0.029,0.84-0.079l7.471,3.498c0.366,0.171,0.791,0.262,1.229,0.262
						c0.762,0,1.465-0.27,1.88-0.721l0.121-0.131c0.328-0.356,0.442-0.784,0.32-1.203c-0.122-0.42-0.465-0.779-0.965-1.014
						l-6.607-3.093l6.607-3.093c0.5-0.234,0.842-0.594,0.965-1.013c0.122-0.419,0.008-0.847-0.321-1.203l-0.12-0.131
						c-0.416-0.451-1.119-0.721-1.881-0.721c-0.438,0-0.863,0.091-1.229,0.262l-5.841,2.735V47.063
						c11.264-0.348,22.383-3.064,22.383-7.82v-2.541h-0.096c-1.185-4.625-13.312-7.111-24.757-7.111s-23.571,2.486-24.757,7.111
						h-0.096v2.541C31.243,44,42.362,46.715,53.626,47.063z M56.095,31.089c13.764,0,23.356,3.353,23.356,6.362
						c0,3.009-9.592,6.362-23.356,6.362s-23.356-3.353-23.356-6.362C32.74,34.442,42.331,31.089,56.095,31.089z M65.635,68.627
						c0.256,0,0.491,0.09,0.63,0.24l0.12,0.131c0.109,0.118,0.147,0.261,0.106,0.401s-0.155,0.26-0.32,0.338l-6.895,3.228
						c-0.145-0.34-0.384-0.654-0.711-0.918v-0.213l6.663-3.119C65.349,68.657,65.49,68.627,65.635,68.627z M66.491,78.045
						c0.041,0.14,0.003,0.283-0.105,0.401l-0.121,0.131c-0.217,0.235-0.702,0.31-1.036,0.153l-6.831-3.198
						c0.405-0.284,0.713-0.642,0.884-1.05l6.89,3.226C66.336,77.784,66.45,77.905,66.491,78.045z M46.555,78.816
						c-0.256,0-0.491-0.09-0.63-0.24l-0.12-0.131c-0.227-0.246-0.13-0.577,0.215-0.739l6.89-3.226
						c0.171,0.408,0.479,0.766,0.884,1.05l-6.831,3.198C46.842,78.786,46.701,78.816,46.555,78.816z M45.805,68.998l0.121-0.131
						c0.138-0.15,0.374-0.24,0.629-0.24c0.145,0,0.286,0.03,0.407,0.087l6.663,3.12v0.213c-0.327,0.264-0.566,0.577-0.711,0.918
						l-6.895-3.228C45.675,69.575,45.579,69.243,45.805,68.998z M57.068,72.435c0,0.263,0.139,0.507,0.365,0.643
						c0.317,0.189,0.505,0.43,0.505,0.644c0,0.465-0.788,0.984-1.843,0.984s-1.843-0.519-1.843-0.984
						c0-0.214,0.189-0.454,0.506-0.644c0.226-0.135,0.365-0.379,0.365-0.643v-25.34c0.325,0.004,0.649,0.006,0.973,0.006
						s0.648-0.002,0.973-0.006v25.34H57.068z"/>
				</g>
			</g>
		</g>
		<path fill="#F1F2F2" d="M66.519,77.548l-7.167-3.583l8.083-4.417c0,0,0.143-1.967-1.917-1.625l-7.5,3.542v-24.75h-4v25l-7.167-3.5
			c0,0-2.979,0.01-1.354,1.76l7.344,3.344l-7.156,3.813c0,0-1.688,1.875,0.5,2.25l8.479-3.917c0,0,2.208,0.479,3.208-0.646l-0.125,1
			l7.687,3.563c0,0,1.454-0.147,1.688-1.25L66.519,77.548z"/>
	</g>
	
		<linearGradient id="SVGID_1_" gradientUnits="userSpaceOnUse" x1="70.61" y1="54.0187" x2="71.2456" y2="52.7157" gradientTransform="matrix(1 0 0 -1 -8.36 124.055)">
		<stop  offset="0.0269" style="stop-color:#FFFFFF"/>
		<stop  offset="0.5484" style="stop-color:#BCBEC0"/>
		<stop  offset="1" style="stop-color:#FFFFFF;stop-opacity:0"/>
	</linearGradient>
	<path fill="url(#SVGID_1_)" d="M65.635,68.627c0.256,0,0.491,0.09,0.63,0.24l0.12,0.131c0.109,0.118,0.147,0.261,0.106,0.401
		s-0.155,0.26-0.32,0.338l-6.895,3.228c-0.145-0.34-0.384-0.654-0.711-0.918v-0.213l6.663-3.119
		C65.349,68.657,65.49,68.627,65.635,68.627z"/>
	
		<linearGradient id="SVGID_2_" gradientUnits="userSpaceOnUse" x1="71.2488" y1="48.0209" x2="70.5264" y2="46.6031" gradientTransform="matrix(1 0 0 -1 -8.36 124.055)">
		<stop  offset="0.0269" style="stop-color:#FFFFFF"/>
		<stop  offset="0.5484" style="stop-color:#A7A9AC"/>
		<stop  offset="1" style="stop-color:#FFFFFF;stop-opacity:0"/>
	</linearGradient>
	<path fill="url(#SVGID_2_)" d="M66.491,78.045c0.041,0.14,0.003,0.283-0.105,0.401l-0.121,0.131
		c-0.217,0.235-0.702,0.31-1.036,0.153l-6.831-3.198c0.405-0.284,0.713-0.642,0.884-1.05l6.89,3.226
		C66.336,77.784,66.45,77.905,66.491,78.045z"/>
	
		<linearGradient id="SVGID_3_" gradientUnits="userSpaceOnUse" x1="57.7436" y1="47.9309" x2="58.3085" y2="46.7195" gradientTransform="matrix(1 0 0 -1 -8.36 124.055)">
		<stop  offset="0.0269" style="stop-color:#FFFFFF"/>
		<stop  offset="0.5484" style="stop-color:#BCBEC0"/>
		<stop  offset="1" style="stop-color:#FFFFFF;stop-opacity:0"/>
	</linearGradient>
	<path fill="url(#SVGID_3_)" d="M46.555,78.816c-0.256,0-0.491-0.09-0.63-0.24l-0.12-0.131c-0.227-0.246-0.13-0.577,0.215-0.739
		l6.89-3.226c0.171,0.408,0.479,0.766,0.884,1.05l-6.831,3.198C46.842,78.786,46.701,78.816,46.555,78.816z"/>
	
		<linearGradient id="SVGID_4_" gradientUnits="userSpaceOnUse" x1="58.3001" y1="54.0188" x2="57.6644" y2="52.7156" gradientTransform="matrix(1 0 0 -1 -8.36 124.055)">
		<stop  offset="0.0269" style="stop-color:#FFFFFF"/>
		<stop  offset="0.5484" style="stop-color:#BCBEC0"/>
		<stop  offset="1" style="stop-color:#FFFFFF;stop-opacity:0"/>
	</linearGradient>
	<path fill="url(#SVGID_4_)" d="M45.805,68.998l0.121-0.131c0.138-0.15,0.374-0.24,0.629-0.24c0.145,0,0.286,0.03,0.407,0.087
		l6.663,3.12v0.213c-0.327,0.264-0.566,0.577-0.711,0.918l-6.895-3.228C45.675,69.575,45.579,69.243,45.805,68.998z"/>
</g>
</svg>
