<?xml version="1.0" encoding="utf-8"?>
<!-- Generator: Adobe Illustrator 17.0.0, SVG Export Plug-In . SVG Version: 6.00 Build 0)  -->
<!DOCTYPE svg PUBLIC "-//W3C//DTD SVG 1.1//EN" "http://www.w3.org/Graphics/SVG/1.1/DTD/svg11.dtd">
<svg version="1.1" id="Layer_1" xmlns="http://www.w3.org/2000/svg" xmlns:xlink="http://www.w3.org/1999/xlink" x="0px" y="0px"
	 width="100px" height="100px" viewBox="0 0 100 100" enable-background="new 0 0 100 100" xml:space="preserve">
<g>
	<g>
		<g>
			<g>
				<g>
					<path fill="#FFFFFF" d="M46.438,48.731c-0.012-1.379-4.553-4.203-7.062-4.193v-3.684c0.044,0.003,0.068,0.006,0.068,0.006
						s4.367-8.324,1.91-12.008c-2.456-3.684-8.331-3.775-12.281-3.548c-16.893,0.972-7.809,13.526-5.619,16.261l0.676,6.034
						c-0.01,0.04-0.014,0.079-0.008,0.119c0.009,0.051,0.022,0.104,0.039,0.158l0.056,0.501l-4.057,16.026l1.587,0.402l2.964-11.708
						l4.757,1.199L27.712,74.46l1.631,0.142L30.589,60.3l5.149-4.424l2,0.504v6.382h1.638v-5.969l6.341,1.598l2.164,13.102
						l1.616-0.267L45.946,49.72C46.264,49.426,46.441,49.098,46.438,48.731z M31.284,52.327c0.071-0.001,0.142-0.001,0.212-0.005
						c1.203-0.067,3.662-0.172,6.243-0.441v0.116l-2.424,2.082l-4.094-1.032L31.284,52.327z M32.076,40.86
						c2.336-0.151,4.338-0.135,5.663-0.091v3.906c-3.069,0.315-9.187,1.099-12.061,2.028l-0.548-4.885
						C26.628,41.514,29.293,41.039,32.076,40.86z M25.114,51.509l0.449-1.772c1.061,0.972,2.574,1.927,4.098,2.356l-0.048,0.55
						L25.114,51.509z M30.793,57.966l0.284-3.265l2.718,0.685L30.793,57.966z M37.258,54.57l0.481-0.413v0.534L37.258,54.57z
						 M45.427,56.628l-6.05-1.525v-3.415c1.895-0.252,3.727-0.607,5.05-1.114L45.427,56.628z"/>
				</g>
				<g>
				</g>
				<g>
				</g>
				<g>
					<path d="M41.195,36.092c-5.29,1.193-9.208,3.082-9.856,5.611h-0.096v2.541c0,3.688,6.686,6.15,14.94,7.231"/>
				</g>
			</g>
		</g>
		<g>
			<ellipse fill="#211D70" cx="56.297" cy="42.644" rx="23.547" ry="7.222"/>
			<g>
				<path fill="#F1F2F2" d="M53.626,52.063v23.493l-5.842-2.735c-0.365-0.171-0.791-0.262-1.229-0.262
					c-0.762,0-1.464,0.27-1.88,0.721l-0.121,0.131c-0.679,0.738-0.39,1.732,0.644,2.216l6.607,3.093l-6.607,3.093
					c-1.035,0.485-1.324,1.479-0.644,2.217l0.12,0.131c0.416,0.451,1.119,0.721,1.881,0.721c0.438,0,0.863-0.091,1.229-0.262
					l7.472-3.498c0.268,0.05,0.548,0.079,0.84,0.079c0.292,0,0.572-0.029,0.84-0.079l7.471,3.498
					c0.366,0.171,0.791,0.262,1.229,0.262c0.762,0,1.465-0.27,1.88-0.721l0.121-0.131c0.328-0.356,0.442-0.784,0.32-1.203
					c-0.122-0.42-0.465-0.779-0.965-1.014l-6.607-3.093l6.607-3.093c0.5-0.234,0.842-0.594,0.965-1.013
					c0.122-0.419,0.008-0.847-0.321-1.203l-0.12-0.131c-0.416-0.451-1.119-0.721-1.881-0.721c-0.438,0-0.863,0.091-1.229,0.262
					l-5.841,2.735V52.063c11.264-0.348,22.383-3.064,22.383-7.82v-2.541h-0.096c-1.185-4.625-13.312-7.111-24.757-7.111
					c-11.445,0-23.571,2.486-24.757,7.111h-0.096v2.541C31.243,49,42.362,51.715,53.626,52.063z M56.095,36.089
					c13.764,0,23.356,3.353,23.356,6.362c0,3.009-9.592,6.362-23.356,6.362c-13.764,0-23.356-3.353-23.356-6.362
					C32.74,39.442,42.331,36.089,56.095,36.089z M65.635,73.627c0.256,0,0.491,0.09,0.63,0.24l0.12,0.131
					c0.109,0.118,0.147,0.261,0.106,0.401c-0.041,0.14-0.155,0.26-0.32,0.338l-6.895,3.228c-0.145-0.34-0.384-0.654-0.711-0.918
					v-0.213l6.663-3.119C65.349,73.657,65.49,73.627,65.635,73.627z M66.491,83.045c0.041,0.14,0.003,0.283-0.105,0.401
					l-0.121,0.131c-0.217,0.235-0.702,0.31-1.036,0.153l-6.831-3.198c0.405-0.284,0.713-0.642,0.884-1.05l6.89,3.226
					C66.336,82.784,66.45,82.905,66.491,83.045z M46.555,83.816c-0.256,0-0.491-0.09-0.63-0.24l-0.12-0.131
					c-0.227-0.246-0.13-0.577,0.215-0.739l6.89-3.226c0.171,0.408,0.479,0.766,0.884,1.05l-6.831,3.198
					C46.842,83.786,46.701,83.816,46.555,83.816z M45.805,73.998l0.121-0.131c0.138-0.15,0.374-0.24,0.629-0.24
					c0.145,0,0.286,0.03,0.407,0.087l6.663,3.12v0.213c-0.327,0.264-0.566,0.577-0.711,0.918l-6.895-3.228
					C45.675,74.575,45.579,74.243,45.805,73.998z M57.068,77.435c0,0.263,0.139,0.507,0.365,0.643
					c0.317,0.189,0.505,0.43,0.505,0.644c0,0.465-0.788,0.984-1.843,0.984c-1.055,0-1.843-0.519-1.843-0.984
					c0-0.214,0.189-0.454,0.506-0.644c0.226-0.135,0.365-0.379,0.365-0.643v-25.34c0.325,0.004,0.649,0.006,0.973,0.006
					c0.324,0,0.648-0.002,0.973-0.006V77.435z"/>
			</g>
		</g>
	</g>
	<path fill="#F1F2F2" d="M66.519,82.548l-7.167-3.583l8.083-4.417c0,0,0.143-1.967-1.917-1.625l-7.5,3.542v-24.75h-4v25l-7.167-3.5
		c0,0-2.979,0.01-1.354,1.76l7.344,3.344l-7.156,3.813c0,0-1.688,1.875,0.5,2.25l8.479-3.917c0,0,2.208,0.479,3.208-0.646l-0.125,1
		l7.687,3.563c0,0,1.454-0.147,1.688-1.25L66.519,82.548z"/>
</g>
<linearGradient id="SVGID_1_" gradientUnits="userSpaceOnUse" x1="62.2501" y1="75.036" x2="62.8854" y2="76.3385">
	<stop  offset="0.0269" style="stop-color:#FFFFFF"/>
	<stop  offset="0.5484" style="stop-color:#BCBEC0"/>
	<stop  offset="1" style="stop-color:#FFFFFF;stop-opacity:0"/>
</linearGradient>
<path fill="url(#SVGID_1_)" d="M65.635,73.627c0.256,0,0.491,0.09,0.63,0.24l0.12,0.131c0.109,0.118,0.147,0.261,0.106,0.401
	c-0.041,0.14-0.155,0.26-0.32,0.338l-6.895,3.228c-0.145-0.34-0.384-0.654-0.711-0.918v-0.213l6.663-3.119
	C65.349,73.657,65.49,73.627,65.635,73.627z"/>
<linearGradient id="SVGID_2_" gradientUnits="userSpaceOnUse" x1="62.8882" y1="81.0338" x2="62.1659" y2="82.4513">
	<stop  offset="0.0269" style="stop-color:#FFFFFF"/>
	<stop  offset="0.5484" style="stop-color:#A7A9AC"/>
	<stop  offset="1" style="stop-color:#FFFFFF;stop-opacity:0"/>
</linearGradient>
<path fill="url(#SVGID_2_)" d="M66.491,83.045c0.041,0.14,0.003,0.283-0.105,0.401l-0.121,0.131
	c-0.217,0.235-0.702,0.31-1.036,0.153l-6.831-3.198c0.405-0.284,0.713-0.642,0.884-1.05l6.89,3.226
	C66.336,82.784,66.45,82.905,66.491,83.045z"/>
<linearGradient id="SVGID_3_" gradientUnits="userSpaceOnUse" x1="49.3838" y1="81.1252" x2="49.9488" y2="82.3368">
	<stop  offset="0.0269" style="stop-color:#FFFFFF"/>
	<stop  offset="0.5484" style="stop-color:#BCBEC0"/>
	<stop  offset="1" style="stop-color:#FFFFFF;stop-opacity:0"/>
</linearGradient>
<path fill="url(#SVGID_3_)" d="M46.555,83.816c-0.256,0-0.491-0.09-0.63-0.24l-0.12-0.131c-0.227-0.246-0.13-0.577,0.215-0.739
	l6.89-3.226c0.171,0.408,0.479,0.766,0.884,1.05l-6.831,3.198C46.842,83.786,46.701,83.816,46.555,83.816z"/>
<linearGradient id="SVGID_4_" gradientUnits="userSpaceOnUse" x1="49.9407" y1="75.0359" x2="49.3053" y2="76.3385">
	<stop  offset="0.0269" style="stop-color:#FFFFFF"/>
	<stop  offset="0.5484" style="stop-color:#BCBEC0"/>
	<stop  offset="1" style="stop-color:#FFFFFF;stop-opacity:0"/>
</linearGradient>
<path fill="url(#SVGID_4_)" d="M45.805,73.998l0.121-0.131c0.138-0.15,0.374-0.24,0.629-0.24c0.145,0,0.286,0.03,0.407,0.087
	l6.663,3.12v0.213c-0.327,0.264-0.566,0.577-0.711,0.918l-6.895-3.228C45.675,74.575,45.579,74.243,45.805,73.998z"/>
</svg>
