<?xml version="1.0" encoding="utf-8"?>
<!-- Generator: Adobe Illustrator 19.0.0, SVG Export Plug-In . SVG Version: 6.00 Build 0)  -->
<svg version="1.1" id="Layer_1" xmlns="http://www.w3.org/2000/svg" xmlns:xlink="http://www.w3.org/1999/xlink" x="0px" y="0px"
	 viewBox="-247 370.9 100 100" style="enable-background:new -247 370.9 100 100;" xml:space="preserve">
<style type="text/css">
	.st0{fill:#FFFFFF;}
	.st1{fill:#678C61;}
	.st2{fill:#F1F2F2;}
	.st3{fill:url(#SVGID_1_);}
	.st4{fill:url(#SVGID_2_);}
	.st5{fill:url(#SVGID_3_);}
	.st6{fill:url(#SVGID_4_);}
</style>
<g>
	<g>
		<g>
			<g>
				<g>
					<path class="st0" d="M-200.6,419.6c0-1.4-4.6-4.2-7.1-4.2v-3.7c0,0,0.1,0,0.1,0s4.4-8.3,1.9-12c-2.5-3.7-8.3-3.8-12.3-3.5
						c-16.9,1-7.8,13.5-5.6,16.3l0.7,6c0,0,0,0.1,0,0.1c0,0.1,0,0.1,0,0.2l0.1,0.5l-4.1,16l1.6,0.4l3-11.7l4.8,1.2l-1.8,20.2
						l1.6,0.1l1.2-14.3l5.1-4.4l2,0.5v6.4h1.6v-6l6.3,1.6l2.2,13.1l1.6-0.3l-3.6-21.5C-200.7,420.3-200.6,420-200.6,419.6z
						 M-215.7,423.2c0.1,0,0.1,0,0.2,0c1.2-0.1,3.7-0.2,6.2-0.4v0.1l-2.4,2.1l-4.1-1L-215.7,423.2z M-214.9,411.8
						c2.3-0.2,4.3-0.1,5.7-0.1v3.9c-3.1,0.3-9.2,1.1-12.1,2l-0.5-4.9C-220.4,412.4-217.7,411.9-214.9,411.8z M-221.9,422.4l0.4-1.8
						c1.1,1,2.6,1.9,4.1,2.4l0,0.5L-221.9,422.4z M-216.2,428.9l0.3-3.3l2.7,0.7L-216.2,428.9z M-209.7,425.5l0.5-0.4v0.5
						L-209.7,425.5z M-201.6,427.5l-6.1-1.5v-3.4c1.9-0.3,3.7-0.6,5.1-1.1L-201.6,427.5z"/>
				</g>
				<g>
					<path d="M-205.8,407c-5.3,1.2-9.2,3.1-9.9,5.6h-0.1v2.5c0,3.7,6.7,6.1,14.9,7.2"/>
				</g>
			</g>
		</g>
		<g>
			<ellipse class="st1" cx="-190.7" cy="413.5" rx="23.5" ry="7.2"/>
			<g>
				<path class="st2" d="M-193.4,423v23.5l-5.8-2.7c-0.4-0.2-0.8-0.3-1.2-0.3c-0.8,0-1.5,0.3-1.9,0.7l-0.1,0.1
					c-0.7,0.7-0.4,1.7,0.6,2.2l6.6,3.1l-6.6,3.1c-1,0.5-1.3,1.5-0.6,2.2l0.1,0.1c0.4,0.5,1.1,0.7,1.9,0.7c0.4,0,0.9-0.1,1.2-0.3
					l7.5-3.5c0.3,0.1,0.5,0.1,0.8,0.1c0.3,0,0.6,0,0.8-0.1l7.5,3.5c0.4,0.2,0.8,0.3,1.2,0.3c0.8,0,1.5-0.3,1.9-0.7l0.1-0.1
					c0.3-0.4,0.4-0.8,0.3-1.2c-0.1-0.4-0.5-0.8-1-1l-6.6-3.1l6.6-3.1c0.5-0.2,0.8-0.6,1-1c0.1-0.4,0-0.8-0.3-1.2l-0.1-0.1
					c-0.4-0.5-1.1-0.7-1.9-0.7c-0.4,0-0.9,0.1-1.2,0.3l-5.8,2.7V423c11.3-0.3,22.4-3.1,22.4-7.8v-2.5h-0.1
					c-1.2-4.6-13.3-7.1-24.8-7.1c-11.4,0-23.6,2.5-24.8,7.1h-0.1v2.5C-215.8,419.9-204.6,422.6-193.4,423z M-190.9,407
					c13.8,0,23.4,3.4,23.4,6.4s-9.6,6.4-23.4,6.4s-23.4-3.4-23.4-6.4C-214.3,410.3-204.7,407-190.9,407z M-181.4,444.5
					c0.3,0,0.5,0.1,0.6,0.2l0.1,0.1c0.1,0.1,0.1,0.3,0.1,0.4c0,0.1-0.2,0.3-0.3,0.3l-6.9,3.2c-0.1-0.3-0.4-0.7-0.7-0.9v-0.2l6.7-3.1
					C-181.7,444.5-181.5,444.5-181.4,444.5z M-180.5,453.9c0,0.1,0,0.3-0.1,0.4l-0.1,0.1c-0.2,0.2-0.7,0.3-1,0.2l-6.8-3.2
					c0.4-0.3,0.7-0.6,0.9-1l6.9,3.2C-180.7,453.7-180.6,453.8-180.5,453.9z M-200.4,454.7c-0.3,0-0.5-0.1-0.6-0.2l-0.1-0.1
					c-0.2-0.2-0.1-0.6,0.2-0.7l6.9-3.2c0.2,0.4,0.5,0.8,0.9,1l-6.8,3.2C-200.2,454.7-200.3,454.7-200.4,454.7z M-201.2,444.9
					l0.1-0.1c0.1-0.2,0.4-0.2,0.6-0.2c0.1,0,0.3,0,0.4,0.1l6.7,3.1v0.2c-0.3,0.3-0.6,0.6-0.7,0.9l-6.9-3.2
					C-201.3,445.5-201.4,445.1-201.2,444.9z M-189.9,448.3c0,0.3,0.1,0.5,0.4,0.6c0.3,0.2,0.5,0.4,0.5,0.6c0,0.5-0.8,1-1.8,1
					c-1.1,0-1.8-0.5-1.8-1c0-0.2,0.2-0.5,0.5-0.6c0.2-0.1,0.4-0.4,0.4-0.6V423c0.3,0,0.6,0,1,0s0.6,0,1,0L-189.9,448.3L-189.9,448.3
					z"/>
			</g>
		</g>
	</g>
	<path class="st2" d="M-180.5,453.4l-7.2-3.6l8.1-4.4c0,0,0.1-2-1.9-1.6l-7.5,3.5v-24.8h-4v25l-7.2-3.5c0,0-3,0-1.4,1.8l7.3,3.3
		l-7.2,3.8c0,0-1.7,1.9,0.5,2.3l8.5-3.9c0,0,2.2,0.5,3.2-0.6l-0.1,1l7.7,3.6c0,0,1.5-0.1,1.7-1.3L-180.5,453.4z"/>
</g>
<linearGradient id="SVGID_1_" gradientUnits="userSpaceOnUse" x1="-184.75" y1="395.7434" x2="-184.1145" y2="394.4405" gradientTransform="matrix(1 0 0 -1 0 841.67)">
	<stop  offset="2.690000e-002" style="stop-color:#FFFFFF"/>
	<stop  offset="0.5484" style="stop-color:#BCBEC0"/>
	<stop  offset="1" style="stop-color:#FFFFFF;stop-opacity:0"/>
</linearGradient>
<path class="st3" d="M-181.4,444.5c0.3,0,0.5,0.1,0.6,0.2l0.1,0.1c0.1,0.1,0.1,0.3,0.1,0.4c0,0.1-0.2,0.3-0.3,0.3l-6.9,3.2
	c-0.1-0.3-0.4-0.7-0.7-0.9v-0.2l6.7-3.1C-181.7,444.5-181.5,444.5-181.4,444.5z"/>
<linearGradient id="SVGID_2_" gradientUnits="userSpaceOnUse" x1="-184.1112" y1="389.7456" x2="-184.8336" y2="388.3278" gradientTransform="matrix(1 0 0 -1 0 841.67)">
	<stop  offset="2.690000e-002" style="stop-color:#FFFFFF"/>
	<stop  offset="0.5484" style="stop-color:#A7A9AC"/>
	<stop  offset="1" style="stop-color:#FFFFFF;stop-opacity:0"/>
</linearGradient>
<path class="st4" d="M-180.5,453.9c0,0.1,0,0.3-0.1,0.4l-0.1,0.1c-0.2,0.2-0.7,0.3-1,0.2l-6.8-3.2c0.4-0.3,0.7-0.6,0.9-1l6.9,3.2
	C-180.7,453.7-180.6,453.8-180.5,453.9z"/>
<linearGradient id="SVGID_3_" gradientUnits="userSpaceOnUse" x1="-197.6164" y1="389.6556" x2="-197.0515" y2="388.4442" gradientTransform="matrix(1 0 0 -1 0 841.67)">
	<stop  offset="2.690000e-002" style="stop-color:#FFFFFF"/>
	<stop  offset="0.5484" style="stop-color:#BCBEC0"/>
	<stop  offset="1" style="stop-color:#FFFFFF;stop-opacity:0"/>
</linearGradient>
<path class="st5" d="M-200.4,454.7c-0.3,0-0.5-0.1-0.6-0.2l-0.1-0.1c-0.2-0.2-0.1-0.6,0.2-0.7l6.9-3.2c0.2,0.4,0.5,0.8,0.9,1
	l-6.8,3.2C-200.2,454.7-200.3,454.7-200.4,454.7z"/>
<linearGradient id="SVGID_4_" gradientUnits="userSpaceOnUse" x1="-197.06" y1="395.7435" x2="-197.6956" y2="394.4403" gradientTransform="matrix(1 0 0 -1 0 841.67)">
	<stop  offset="2.690000e-002" style="stop-color:#FFFFFF"/>
	<stop  offset="0.5484" style="stop-color:#BCBEC0"/>
	<stop  offset="1" style="stop-color:#FFFFFF;stop-opacity:0"/>
</linearGradient>
<path class="st6" d="M-201.2,444.9l0.1-0.1c0.1-0.2,0.4-0.2,0.6-0.2c0.1,0,0.3,0,0.4,0.1l6.7,3.1v0.2c-0.3,0.3-0.6,0.6-0.7,0.9
	l-6.9-3.2C-201.3,445.5-201.4,445.1-201.2,444.9z"/>
</svg>
