<?xml version="1.0" encoding="utf-8"?>
<!-- Generator: Adobe Illustrator 19.0.0, SVG Export Plug-In . SVG Version: 6.00 Build 0)  -->
<svg version="1.1" id="Layer_1" xmlns="http://www.w3.org/2000/svg" xmlns:xlink="http://www.w3.org/1999/xlink" x="0px" y="0px"
	 viewBox="-168 291.9 258 258" style="enable-background:new -168 291.9 258 258;" xml:space="preserve">
<style type="text/css">
	.st0{clip-path:url(#SVGID_2_);}
	.st1{fill:#CCCCCC;}
	.st2{fill:#5E3202;}
	.st3{fill:#7A3D06;}
	.st4{fill:#C47D2F;}
	.st5{fill:#A65806;}
	.st6{fill:url(#Path_320_2_);}
	.st7{fill:url(#Path_321_2_);}
	.st8{fill:#C47D2F;stroke:#81460A;}
	.st9{fill:#472500;}
	.st10{fill:#BA640D;}
	.st11{fill:#E4E4E4;}
	.st12{fill:url(#Path_328_2_);}
	.st13{fill:url(#Path_329_2_);}
	.st14{fill:none;stroke:#7A3D06;}
	.st15{fill:url(#Path_328-2_2_);}
	.st16{fill:url(#Path_329-2_2_);}
	.st17{fill:url(#Path_472-4_1_);}
	.st18{fill:url(#Path_416-4_1_);}
	.st19{fill:url(#Path_436-4_1_);}
	.st20{fill:url(#Path_448-4_1_);}
	.st21{fill:url(#Path_449-4_1_);}
	.st22{fill:url(#Path_454-4_1_);}
	.st23{fill:url(#Path_441-4_1_);}
	.st24{fill:url(#Path_469-4_1_);}
	.st25{fill:url(#Path_462-4_1_);}
	.st26{fill:url(#Path_417-4_1_);}
	.st27{fill:url(#Path_418-4_1_);}
	.st28{fill:url(#Subtraction_76-4_1_);}
	.st29{fill:url(#Subtraction_74-4_1_);}
	.st30{fill:url(#Subtraction_66-4_1_);}
	.st31{fill:url(#Subtraction_67-4_1_);}
	.st32{fill:url(#Subtraction_68-4_1_);}
	.st33{fill:url(#Subtraction_69-4_1_);}
	.st34{fill:url(#Path_435_1_);}
	.st35{fill:url(#Subtraction_79-4_1_);}
	.st36{fill:url(#Subtraction_83-4_1_);}
	.st37{fill:url(#Subtraction_81-4_1_);}
	.st38{fill:url(#Subtraction_77-4_1_);}
	.st39{fill:url(#Subtraction_87-4_1_);}
	.st40{fill:url(#Subtraction_85-4_1_);}
	.st41{fill:url(#Subtraction_78-4_1_);}
	.st42{fill:url(#Subtraction_82-4_1_);}
	.st43{fill:url(#Subtraction_80-4_1_);}
	.st44{fill:url(#Subtraction_75-4_1_);}
	.st45{fill:url(#Subtraction_86-4_1_);}
	.st46{fill:url(#Subtraction_84-4_1_);}
	.st47{fill:url(#Subtraction_70-4_1_);}
	.st48{fill:url(#Subtraction_71-4_1_);}
	.st49{fill:url(#Subtraction_72-4_1_);}
	.st50{fill:url(#Subtraction_73-4_1_);}
	.st51{fill:url(#Path_472-5_1_);}
	.st52{fill:url(#Path_416-5_1_);}
	.st53{fill:url(#Path_436-5_1_);}
	.st54{fill:url(#Path_448-5_1_);}
	.st55{fill:url(#Path_449-5_1_);}
	.st56{fill:url(#Path_454-5_1_);}
	.st57{fill:url(#Path_441-5_1_);}
	.st58{fill:url(#Path_469-5_1_);}
	.st59{fill:url(#Path_462-5_1_);}
	.st60{fill:url(#Path_417-5_1_);}
	.st61{fill:url(#Path_418-5_1_);}
	.st62{fill:url(#Subtraction_76-5_1_);}
	.st63{fill:url(#Subtraction_74-5_1_);}
	.st64{fill:url(#Subtraction_66-5_1_);}
	.st65{fill:url(#Subtraction_67-5_1_);}
	.st66{fill:url(#Subtraction_68-5_1_);}
	.st67{fill:url(#Subtraction_69-5_1_);}
	.st68{fill:url(#Path_435-2_2_);}
	.st69{fill:url(#Subtraction_79-5_1_);}
	.st70{fill:url(#Subtraction_83-5_1_);}
	.st71{fill:url(#Subtraction_81-5_1_);}
	.st72{fill:url(#Subtraction_77-5_1_);}
	.st73{fill:url(#Subtraction_87-5_1_);}
	.st74{fill:url(#Subtraction_85-5_1_);}
	.st75{fill:url(#Subtraction_78-5_1_);}
	.st76{fill:url(#Subtraction_82-5_1_);}
	.st77{fill:url(#Subtraction_80-5_1_);}
	.st78{fill:url(#Subtraction_75-5_1_);}
	.st79{fill:url(#Subtraction_86-5_1_);}
	.st80{fill:url(#Subtraction_84-5_1_);}
	.st81{fill:url(#Subtraction_70-5_1_);}
	.st82{fill:url(#Subtraction_71-5_1_);}
	.st83{fill:url(#Subtraction_72-5_1_);}
	.st84{fill:url(#Subtraction_73-5_1_);}
	.st85{fill:url(#Path_472-6_2_);}
	.st86{fill:url(#Path_416-6_2_);}
	.st87{fill:url(#Path_436-6_2_);}
	.st88{fill:url(#Path_448-6_2_);}
	.st89{fill:url(#Path_449-6_2_);}
	.st90{fill:url(#Path_454-6_2_);}
	.st91{fill:url(#Path_441-6_2_);}
	.st92{fill:url(#Path_469-6_2_);}
	.st93{fill:url(#Path_462-6_2_);}
	.st94{fill:url(#Path_417-6_2_);}
	.st95{fill:url(#Path_418-6_2_);}
	.st96{fill:url(#Subtraction_76-6_2_);}
	.st97{fill:url(#Subtraction_74-6_2_);}
	.st98{fill:url(#Subtraction_66-6_2_);}
	.st99{fill:url(#Subtraction_67-6_2_);}
	.st100{fill:url(#Subtraction_68-6_2_);}
	.st101{fill:url(#Subtraction_69-6_2_);}
	.st102{fill:url(#Path_435-3_1_);}
	.st103{fill:url(#Subtraction_79-6_2_);}
	.st104{fill:url(#Subtraction_83-6_2_);}
	.st105{fill:url(#Subtraction_81-6_2_);}
	.st106{fill:url(#Subtraction_77-6_2_);}
	.st107{fill:url(#Subtraction_87-6_2_);}
	.st108{fill:url(#Subtraction_85-6_2_);}
	.st109{fill:url(#Subtraction_78-6_2_);}
	.st110{fill:url(#Subtraction_82-6_2_);}
	.st111{fill:url(#Subtraction_80-6_2_);}
	.st112{fill:url(#Subtraction_75-6_2_);}
	.st113{fill:url(#Subtraction_86-6_2_);}
	.st114{fill:url(#Subtraction_84-6_2_);}
	.st115{fill:url(#Subtraction_70-6_2_);}
	.st116{fill:url(#Subtraction_71-6_2_);}
	.st117{fill:url(#Subtraction_72-6_2_);}
	.st118{fill:url(#Subtraction_73-6_2_);}
	.st119{fill:#987A5E;}
	.st120{fill:#81460A;}
	.st121{fill:none;stroke:#FFFFFF;}
	.st122{fill:none;stroke:#81460A;}
	.st123{fill:none;stroke:#707070;}
	.st124{fill:#A55705;}
	.st125{fill:#793C05;}
</style>
<g>
	<g>
		<g>
			<defs>
				<rect id="SVGID_1_" x="-168" y="291.9" width="258" height="258"/>
			</defs>
			<clipPath id="SVGID_2_">
				<use xlink:href="#SVGID_1_"  style="overflow:visible;"/>
			</clipPath>
			<g id="Artboard_32" class="st0">
				<g id="Group_489" transform="translate(32 40)">
					<g id="Group_288_1_" transform="translate(15.855)">
						<path id="Path_306_1_" class="st1" d="M-141.6,372l-26.4-14.3l26.4-12.8l25.1,12.8L-141.6,372z"/>
						<path id="Path_296_1_" class="st2" d="M-123.9,336l0.4,21.6c0,0,1.2,0.7,2.2,1.3c0-0.8,0-24.1,0-24.1L-123.9,336z"/>
						<path id="Subtraction_42_1_" class="st3" d="M-162.5,332.7L-162.5,332.7c-1-3.3-1.7-6.6-2.1-10c-0.4-3-0.5-6-0.3-9
							s1-5.9,2.3-8.5c1.5-4.2,6.8-7.4,9.9-9c4.3-2.2,9.1-3.7,11.8-3.7c0.2,0,0.5,0,0.7,0c0,13.2,0.4,26.8,0.4,26.9l-15.2,8.9
							l13.1-7.8l0,0c-0.1-1.3-0.5-13.3-0.5-21.8c-0.1,0-0.2,0-0.3,0c-1.2,0-3.9,1-7.2,2.5c-3.7,1.7-7.2,3.8-10.5,6.2
							c0,8.7-0.3,22.8-0.3,24.4L-162.5,332.7L-162.5,332.7z"/>
						<path id="Path_294_1_" class="st4" d="M-139.7,319.3l20.5,11.9l-22.7,13.3l-20.6-11.8L-139.7,319.3z"/>
						<path id="Path_291_1_" class="st3" d="M-160.8,336l-0.3,21.9l-1.8,1.4l0.4-24.2L-160.8,336z"/>
						<path id="Path_290_1_" class="st5" d="M-165,358.1v-53.9l2.5,0.9l0.1,27.5l20.5,11.8l0.2,26.4l-2.2-1.3l-0.4-23.2l-18.1-10.2
							l-0.3,23.2L-165,358.1z"/>
						<path id="Path_293_1_" class="st4" d="M-143.3,291.9c0.9,0.2,2.4,0.5,3.2,0.6c-3.4,0-19.7,5.6-22.4,12.6
							c-0.9-0.2-1.7-0.5-2.5-0.9C-162.1,299.1-150.4,291.7-143.3,291.9z"/>
						<path id="Path_295_1_" class="st3" d="M-141.8,370.8c0.9-0.5,2.4-1.3,2.4-1.3l-0.2-23.9l18-10.5l0.3,23.8l2.5-1.5l-0.5-26.3
							l-22.8,13.3L-141.8,370.8z"/>
						<path id="Path_319_1_" class="st2" d="M-143.1,298.7c0,5.8,0.4,22.3,0.4,22.3l0.9-0.5l-0.4-21.8
							C-142.2,298.7-142.4,298.5-143.1,298.7z"/>
						
							<linearGradient id="Path_320_2_" gradientUnits="userSpaceOnUse" x1="-1104.7688" y1="781.3317" x2="-1105.5767" y2="780.8026" gradientTransform="matrix(18.2627 0 0 -14.4692 20029.9805 11622.7822)">
							<stop  offset="0" style="stop-color:#5E3202"/>
							<stop  offset="1" style="stop-color:#7A3D06"/>
						</linearGradient>
						<path id="Path_320_1_" class="st6" d="M-160.7,328.3c0-1.5,0.1-2.4,0.1-5.3c6.4-4.8,11-7.2,18.2-9.2c0,1.3,0.1,2.1,0,3
							C-145.2,317.3-160.6,325.8-160.7,328.3z"/>
						
							<linearGradient id="Path_321_2_" gradientUnits="userSpaceOnUse" x1="-1106.6722" y1="781.3625" x2="-1107.4802" y2="780.8336" gradientTransform="matrix(19.0518 0 0 -14.4932 20937.877 11632.4766)">
							<stop  offset="0" style="stop-color:#5E3202"/>
							<stop  offset="1" style="stop-color:#7A3D06"/>
						</linearGradient>
						<path id="Path_321_1_" class="st7" d="M-161.5,318.9c0-1.4,0.1-2.3,0.1-5c2.8-2.5,11-8.3,19-9.5c0,1.2,0.1,2.5,0,3.4
							C-148.9,308.6-159.3,315.7-161.5,318.9z"/>
						<path id="Path_548_1_" class="st8" d="M-140,322l16.1,9.3l-17.8,10.4l-16.1-9.2L-140,322z"/>
					</g>
					<g id="Group_295_1_" transform="translate(88.166 1.752)">
						<path id="Path_307_1_" class="st1" d="M-111.7,363.4l-28.2,15.9l-28.1-16.5l28.1-15.5L-111.7,363.4z"/>
						<path id="Path_280_1_" class="st9" d="M-120.1,339.4l2.9-1.5l0.1,26.2l-3-1.3V339.4z"/>
						<path id="Path_282_1_" class="st3" d="M-159.7,339.5v22l-2.1,1.3l-0.3-24.5L-159.7,339.5z"/>
						<path id="Path_270_1_" class="st10" d="M-142.1,292.7c0,0,18.8,3.5,25.1,14.2c0.8,10.8,0,28.6,0,28.6l-25.1-13.7V292.7z"/>
						<path id="Path_271_1_" class="st4" d="M-164.2,334.3l22.1-12.5l25.1,13.7l-22.9,13.4L-164.2,334.3z"/>
						<path id="Path_279_1_" class="st3" d="M-140,377.2l0.1-28.6l22.9-13.1v-28.7l2.2-1l0.1,57.3l-2.4,0.9l-0.2-26l-20.4,11.9
							l-0.3,26L-140,377.2z"/>
						<path id="Path_281_1_" class="st10" d="M-160,339.7l17.7,10.6v25.8l2.3,1.1l0.1-28.6l-24.2-14.3l-0.3,27.6
							c0,0,2.6,0.8,2.7,0.9s-0.2-24.3-0.2-24.3L-160,339.7z"/>
						<path id="Path_283_1_" class="st4" d="M-139.9,291.9c8.5,0,22.1,8.8,25.1,14c-0.7,0.4-1.4,0.7-2.2,1
							c-6.1-9.2-20.1-13.2-25-14.1C-141.4,292.4-140.7,292.1-139.9,291.9z"/>
						<path id="Path_325_1_" class="st11" d="M-119.8,333.9c0,0,0.4-12.4,0.4-22.7c-0.4-3.2-15.5-12.1-19.6-10.5
							c0.4,7.9-0.4,22.7-0.4,22.7L-119.8,333.9z"/>
						<path id="Path_326_1_" class="st3" d="M-138.3,323.9l0.5-23.5c-0.4,0-0.8,0.1-1.2,0.2c-0.4,5.7-0.3,22.7-0.3,22.7
							L-138.3,323.9z"/>
						
							<linearGradient id="Path_328_2_" gradientUnits="userSpaceOnUse" x1="-1323.2611" y1="778.1176" x2="-1323.6941" y2="778.1796" gradientTransform="matrix(18.7998 0 0 -13.6509 24749.2871 10942.2041)">
							<stop  offset="0" style="stop-color:#BA640D"/>
							<stop  offset="1" style="stop-color:#7A3D06"/>
						</linearGradient>
						<path id="Path_328_1_" class="st12" d="M-119.4,323.2c-3.6-3.1-12-8.9-18.8-9.9c0.1,1.8,0,2.2,0,3c4.2,1.3,12.6,4.8,18.8,10.6
							C-119.4,326.9-119.4,323.2-119.4,323.2z"/>
						
							<linearGradient id="Path_329_2_" gradientUnits="userSpaceOnUse" x1="-1323.2607" y1="778.1197" x2="-1323.6937" y2="778.1817" gradientTransform="matrix(18.7998 0 0 -13.6509 24749.2871 10934.5332)">
							<stop  offset="0" style="stop-color:#BA640D"/>
							<stop  offset="1" style="stop-color:#7A3D06"/>
						</linearGradient>
						<path id="Path_329_1_" class="st13" d="M-119.4,315.5c-3.6-3.1-12-8.9-18.8-9.9c0.1,1.8,0,2.2,0,3c4.2,1.3,12.6,4.8,18.8,10.6
							C-119.4,319.2-119.4,315.5-119.4,315.5z"/>
						<path id="Path_547_1_" class="st14" d="M-159.7,334.5l17.9-10.1l20.3,11.1l-18.5,10.8L-159.7,334.5z"/>
					</g>
					<g id="Group_302_1_" transform="translate(121.39 23.249)">
						<path id="Path_307-2_1_" class="st1" d="M-111.7,363.4l-28.2,15.9l-28.1-16.5l28.1-15.5L-111.7,363.4z"/>
						<path id="Path_280-2_1_" class="st9" d="M-120.1,339.4l2.9-1.5l0.1,26.2l-3-1.3V339.4z"/>
						<path id="Path_282-2_1_" class="st3" d="M-159.7,339.5v22l-2.1,1.3l-0.3-24.5L-159.7,339.5z"/>
						<path id="Path_270-2_1_" class="st10" d="M-142.1,292.7c0,0,18.8,3.5,25.1,14.2c0.8,10.8,0,28.6,0,28.6l-25.1-13.7V292.7z"/>
						<path id="Path_271-2_1_" class="st4" d="M-164.2,334.3l22.1-12.5l25.1,13.7l-22.9,13.4L-164.2,334.3z"/>
						<path id="Path_279-2_1_" class="st3" d="M-140,377.2l0.1-28.6l22.9-13.1v-28.7l2.2-1l0.1,57.3l-2.4,0.9l-0.2-26l-20.4,11.9
							l-0.3,26L-140,377.2z"/>
						<path id="Path_281-2_1_" class="st10" d="M-160,339.7l17.7,10.6v25.8l2.3,1.1l0.1-28.6l-24.2-14.3l-0.3,27.6
							c0,0,2.6,0.8,2.7,0.9s-0.2-24.3-0.2-24.3L-160,339.7z"/>
						<path id="Path_283-2_1_" class="st4" d="M-139.9,291.9c8.5,0,22.1,8.8,25.1,14c-0.7,0.4-1.4,0.7-2.2,1
							c-6.1-9.2-20.1-13.2-25-14.1C-141.4,292.4-140.7,292.1-139.9,291.9z"/>
						<path id="Path_325-2_1_" class="st11" d="M-119.8,333.9c0,0,0.4-12.4,0.4-22.7c-0.4-3.2-15.5-12.1-19.6-10.5
							c0.4,7.9-0.4,22.7-0.4,22.7L-119.8,333.9z"/>
						<path id="Path_326-2_1_" class="st3" d="M-138.3,323.9l0.5-23.5c-0.4,0-0.8,0.1-1.2,0.2c-0.4,5.7-0.3,22.7-0.3,22.7
							L-138.3,323.9z"/>
						
							<linearGradient id="Path_328-2_2_" gradientUnits="userSpaceOnUse" x1="-1422.9331" y1="756.6207" x2="-1423.366" y2="756.6827" gradientTransform="matrix(18.7998 0 0 -13.6509 26623.0996 10648.752)">
							<stop  offset="0" style="stop-color:#BA640D"/>
							<stop  offset="1" style="stop-color:#7A3D06"/>
						</linearGradient>
						<path id="Path_328-2_1_" class="st15" d="M-119.4,323.2c-3.6-3.1-12-8.9-18.8-9.9c0.1,1.8,0,2.2,0,3
							c4.2,1.3,12.6,4.8,18.8,10.6C-119.4,326.9-119.4,323.2-119.4,323.2z"/>
						
							<linearGradient id="Path_329-2_2_" gradientUnits="userSpaceOnUse" x1="-1422.9327" y1="756.6228" x2="-1423.3656" y2="756.6848" gradientTransform="matrix(18.7998 0 0 -13.6509 26623.0996 10641.0811)">
							<stop  offset="0" style="stop-color:#BA640D"/>
							<stop  offset="1" style="stop-color:#7A3D06"/>
						</linearGradient>
						<path id="Path_329-2_1_" class="st16" d="M-119.4,315.5c-3.6-3.1-12-8.9-18.8-9.9c0.1,1.8,0,2.2,0,3
							c4.2,1.3,12.6,4.8,18.8,10.6C-119.4,319.2-119.4,315.5-119.4,315.5z"/>
						<path id="Path_547-2_1_" class="st14" d="M-159.7,334.5l17.9-10.1l20.3,11.1l-18.5,10.8L-159.7,334.5z"/>
					</g>
					<path id="Path_580_1_" class="st1" d="M-98.9,423.2l-52.4-33.8l52.4-30.9l54.2,30.9L-98.9,423.2z"/>
					<g id="Group_293_2_" transform="translate(111.015 103.596)">
						<g transform="matrix(1, 0, 0, 1, -143.02, -143.6)">
							
								<linearGradient id="Path_472-4_1_" gradientUnits="userSpaceOnUse" x1="-934.5212" y1="772.0601" x2="-935.0901" y2="772.0582" gradientTransform="matrix(11.592 0 0 -4.2205 10819.582 3737.0627)">
								<stop  offset="0" style="stop-color:#7A3D06"/>
								<stop  offset="1" style="stop-color:#A65806"/>
							</linearGradient>
							<path id="Path_472-4_3_" class="st17" d="M-21.1,476.5h3.9c2.1,0,3.9,0.9,3.9,2.1c0,0.8-0.7,1.4-2.4,1.9
								c-0.5,0.1-1,0.2-1.5,0.2h-3.9c-2.1,0-3.9-0.9-3.9-2.1S-23.2,476.5-21.1,476.5z"/>
						</g>
						<g transform="matrix(1, 0, 0, 1, -143.02, -143.6)">
							
								<linearGradient id="Path_416-4_1_" gradientUnits="userSpaceOnUse" x1="-934.5212" y1="772.0577" x2="-935.0901" y2="772.0558" gradientTransform="matrix(11.592 0 0 -4.2205 10819.582 3696.0527)">
								<stop  offset="0" style="stop-color:#7A3D06"/>
								<stop  offset="1" style="stop-color:#A65806"/>
							</linearGradient>
							<path id="Path_416-4_3_" class="st18" d="M-21.1,435.5h3.9c2.1,0,3.9,0.9,3.9,2.1c0,0.8-0.7,1.4-2.4,1.9
								c-0.5,0.1-1,0.2-1.5,0.2h-3.9c-2.1,0-3.9-0.9-3.9-2.1S-23.2,435.5-21.1,435.5z"/>
						</g>
						<g transform="matrix(1, 0, 0, 1, -143.02, -143.6)">
							
								<linearGradient id="Path_436-4_1_" gradientUnits="userSpaceOnUse" x1="-934.5212" y1="772.0602" x2="-935.0901" y2="772.0582" gradientTransform="matrix(11.592 0 0 -4.2205 10819.582 3713.7627)">
								<stop  offset="0" style="stop-color:#7A3D06"/>
								<stop  offset="1" style="stop-color:#A65806"/>
							</linearGradient>
							<path id="Path_436-4_3_" class="st19" d="M-21.1,453.2h3.9c2.1,0,3.9,0.9,3.9,2.1c0,0.8-0.7,1.4-2.4,1.9
								c-0.5,0.1-1,0.2-1.5,0.2h-3.9c-2.1,0-3.9-0.9-3.9-2.1S-23.2,453.2-21.1,453.2z"/>
						</g>
						<g transform="matrix(1, 0, 0, 1, -143.02, -143.6)">
							
								<linearGradient id="Path_448-4_1_" gradientUnits="userSpaceOnUse" x1="-934.5212" y1="772.0507" x2="-935.0901" y2="772.0488" gradientTransform="matrix(11.592 0 0 -4.2205 10819.582 3715.6228)">
								<stop  offset="0" style="stop-color:#7A3D06"/>
								<stop  offset="1" style="stop-color:#A65806"/>
							</linearGradient>
							<path id="Path_448-4_3_" class="st20" d="M-21.1,455.1h3.9c2.1,0,3.9,0.9,3.9,2.1c0,0.8-0.7,1.4-2.4,1.9
								c-0.5,0.1-1,0.2-1.5,0.2h-3.9c-2.1,0-3.9-0.9-3.9-2.1S-23.2,455.1-21.1,455.1z"/>
						</g>
						<g transform="matrix(1, 0, 0, 1, -143.02, -143.6)">
							
								<linearGradient id="Path_449-4_1_" gradientUnits="userSpaceOnUse" x1="-934.5212" y1="772.0507" x2="-935.0901" y2="772.0488" gradientTransform="matrix(11.592 0 0 -4.2205 10819.582 3715.6228)">
								<stop  offset="0" style="stop-color:#7A3D06"/>
								<stop  offset="1" style="stop-color:#A65806"/>
							</linearGradient>
							<path id="Path_449-4_3_" class="st21" d="M-21.1,455.1h3.9c2.1,0,3.9,0.9,3.9,2.1c0,0.8-0.7,1.4-2.4,1.9
								c-0.5,0.1-1,0.2-1.5,0.2h-3.9c-2.1,0-3.9-0.9-3.9-2.1S-23.2,455.1-21.1,455.1z"/>
						</g>
						<g transform="matrix(1, 0, 0, 1, -143.02, -143.6)">
							
								<linearGradient id="Path_454-4_1_" gradientUnits="userSpaceOnUse" x1="-934.5212" y1="772.0601" x2="-935.0901" y2="772.0582" gradientTransform="matrix(11.592 0 0 -4.2205 10819.582 3716.5627)">
								<stop  offset="0" style="stop-color:#7A3D06"/>
								<stop  offset="1" style="stop-color:#A65806"/>
							</linearGradient>
							<path id="Path_454-4_3_" class="st22" d="M-21.1,456h3.9c2.1,0,3.9,0.9,3.9,2.1c0,0.8-0.7,1.4-2.4,1.9
								c-0.5,0.1-1,0.2-1.5,0.2h-3.9c-2.1,0-3.9-0.9-3.9-2.1S-23.2,456-21.1,456z"/>
						</g>
						<g transform="matrix(1, 0, 0, 1, -143.02, -143.6)">
							
								<linearGradient id="Path_441-4_1_" gradientUnits="userSpaceOnUse" x1="-934.5212" y1="772.0673" x2="-935.0901" y2="772.0654" gradientTransform="matrix(11.592 0 0 -4.2205 10819.582 3714.6929)">
								<stop  offset="0" style="stop-color:#7A3D06"/>
								<stop  offset="1" style="stop-color:#A65806"/>
							</linearGradient>
							<path id="Path_441-4_3_" class="st23" d="M-21.1,454.1h3.9c2.1,0,3.9,0.9,3.9,2.1c0,0.8-0.7,1.4-2.4,1.9
								c-0.5,0.1-1,0.2-1.5,0.2h-3.9c-2.1,0-3.9-0.9-3.9-2.1C-25,455.1-23.2,454.1-21.1,454.1z"/>
						</g>
						<g transform="matrix(1, 0, 0, 1, -143.02, -143.6)">
							
								<linearGradient id="Path_469-4_1_" gradientUnits="userSpaceOnUse" x1="-934.5212" y1="772.0673" x2="-935.0901" y2="772.0653" gradientTransform="matrix(11.592 0 0 -4.2205 10819.582 3736.0928)">
								<stop  offset="0" style="stop-color:#7A3D06"/>
								<stop  offset="1" style="stop-color:#A65806"/>
							</linearGradient>
							<path id="Path_469-4_3_" class="st24" d="M-21.1,475.5h3.9c2.1,0,3.9,0.9,3.9,2.1c0,0.8-0.7,1.4-2.4,1.9
								c-0.5,0.1-1,0.2-1.5,0.2h-3.9c-2.1,0-3.9-0.9-3.9-2.1C-25,476.5-23.2,475.5-21.1,475.5z"/>
						</g>
						<g transform="matrix(1, 0, 0, 1, -143.02, -143.6)">
							
								<linearGradient id="Path_462-4_1_" gradientUnits="userSpaceOnUse" x1="-934.5212" y1="772.053" x2="-935.0901" y2="772.0511" gradientTransform="matrix(11.592 0 0 -4.2205 10819.582 3734.1328)">
								<stop  offset="0" style="stop-color:#7A3D06"/>
								<stop  offset="1" style="stop-color:#A65806"/>
							</linearGradient>
							<path id="Path_462-4_3_" class="st25" d="M-21.1,473.6h3.9c2.1,0,3.9,0.9,3.9,2.1c0,0.8-0.7,1.4-2.4,1.9
								c-0.5,0.1-1,0.2-1.5,0.2h-3.9c-2.1,0-3.9-0.9-3.9-2.1S-23.2,473.6-21.1,473.6z"/>
						</g>
						<g transform="matrix(1, 0, 0, 1, -143.02, -143.6)">
							
								<linearGradient id="Path_417-4_1_" gradientUnits="userSpaceOnUse" x1="-934.5212" y1="772.0507" x2="-935.0901" y2="772.0488" gradientTransform="matrix(11.592 0 0 -4.2205 10819.582 3697.0227)">
								<stop  offset="0" style="stop-color:#7A3D06"/>
								<stop  offset="1" style="stop-color:#A65806"/>
							</linearGradient>
							<path id="Path_417-4_3_" class="st26" d="M-21.1,436.5h3.9c2.1,0,3.9,0.9,3.9,2.1c0,0.8-0.7,1.4-2.4,1.9
								c-0.5,0.1-1,0.2-1.5,0.2h-3.9c-2.1,0-3.9-0.9-3.9-2.1S-23.2,436.5-21.1,436.5z"/>
						</g>
						<g transform="matrix(1, 0, 0, 1, -143.02, -143.6)">
							
								<linearGradient id="Path_418-4_1_" gradientUnits="userSpaceOnUse" x1="-934.5212" y1="772.0697" x2="-935.0901" y2="772.0677" gradientTransform="matrix(11.592 0 0 -4.2205 10819.582 3698.0027)">
								<stop  offset="0" style="stop-color:#7A3D06"/>
								<stop  offset="1" style="stop-color:#A65806"/>
							</linearGradient>
							<path id="Path_418-4_3_" class="st27" d="M-21.1,437.4h3.9c2.1,0,3.9,0.9,3.9,2.1c0,0.8-0.7,1.4-2.4,1.9
								c-0.5,0.1-1,0.2-1.5,0.2h-3.9c-2.1,0-3.9-0.9-3.9-2.1C-25,438.4-23.2,437.4-21.1,437.4z"/>
						</g>
						<g transform="matrix(1, 0, 0, 1, -143.02, -143.6)">
							
								<linearGradient id="Subtraction_76-4_1_" gradientUnits="userSpaceOnUse" x1="-919.831" y1="728.8814" x2="-920.4" y2="728.8793" gradientTransform="matrix(9.638 0 0 -2.6 8850.9492 2350.5784)">
								<stop  offset="0" style="stop-color:#7A3D06"/>
								<stop  offset="1" style="stop-color:#A65806"/>
							</linearGradient>
							<path id="Subtraction_76-4_3_" class="st28" d="M-23.9,456.8L-23.9,456.8c-0.1-0.2-0.1-0.3-0.1-0.5c0-1.2,1.4-2.1,3.2-2.1
								h3.2c1.8,0,3.2,0.9,3.2,2.1c0,0.2,0,0.3-0.1,0.5c-0.6-1.1-1.9-1.7-3.1-1.6h-3.2C-22.1,455-23.3,455.6-23.9,456.8L-23.9,456.8
								z"/>
						</g>
						<g transform="matrix(1, 0, 0, 1, -143.02, -143.6)">
							
								<linearGradient id="Subtraction_74-4_1_" gradientUnits="userSpaceOnUse" x1="-919.8311" y1="728.9083" x2="-920.4001" y2="728.9063" gradientTransform="matrix(9.638 0 0 -2.6 8850.9492 2349.6484)">
								<stop  offset="0" style="stop-color:#7A3D06"/>
								<stop  offset="1" style="stop-color:#A65806"/>
							</linearGradient>
							<path id="Subtraction_74-4_3_" class="st29" d="M-23.9,455.8L-23.9,455.8c-0.1-0.2-0.1-0.3-0.1-0.5c0-1.2,1.4-2.1,3.2-2.1
								h3.2c1.8,0,3.2,0.9,3.2,2.1c0,0.2,0,0.3-0.1,0.5c-0.6-1.1-1.9-1.7-3.1-1.6h-3.2C-22.1,454.1-23.3,454.7-23.9,455.8
								L-23.9,455.8z"/>
						</g>
						<g transform="matrix(1, 0, 0, 1, -143.02, -143.6)">
							
								<linearGradient id="Subtraction_66-4_1_" gradientUnits="userSpaceOnUse" x1="-919.8311" y1="728.9044" x2="-920.4001" y2="728.9025" gradientTransform="matrix(9.638 0 0 -2.6 8850.9492 2334.8384)">
								<stop  offset="0" style="stop-color:#7A3D06"/>
								<stop  offset="1" style="stop-color:#A65806"/>
							</linearGradient>
							<path id="Subtraction_66-4_3_" class="st30" d="M-23.9,441L-23.9,441c-0.1-0.2-0.1-0.3-0.1-0.5c0-1.2,1.4-2.1,3.2-2.1h3.2
								c1.8,0,3.2,0.9,3.2,2.1c0,0.2,0,0.3-0.1,0.5c-0.6-1.1-1.9-1.7-3.1-1.6h-3.2C-22.1,439.3-23.3,439.9-23.9,441L-23.9,441z"/>
						</g>
						<g transform="matrix(1, 0, 0, 1, -143.02, -143.6)">
							
								<linearGradient id="Subtraction_67-4_1_" gradientUnits="userSpaceOnUse" x1="-919.8311" y1="728.9122" x2="-920.4002" y2="728.9102" gradientTransform="matrix(9.638 0 0 -2.6 8850.9492 2333.8584)">
								<stop  offset="0" style="stop-color:#7A3D06"/>
								<stop  offset="1" style="stop-color:#A65806"/>
							</linearGradient>
							<path id="Subtraction_67-4_3_" class="st31" d="M-23.9,440L-23.9,440c-0.1-0.2-0.1-0.3-0.1-0.5c0-1.2,1.4-2.1,3.2-2.1h3.2
								c1.8,0,3.2,0.9,3.2,2.1c0,0.2,0,0.3-0.1,0.5c-0.6-1.1-1.9-1.7-3.1-1.6h-3.2C-22.1,438.3-23.3,438.9-23.9,440L-23.9,440z"/>
						</g>
						<g transform="matrix(1, 0, 0, 1, -143.02, -143.6)">
							
								<linearGradient id="Subtraction_68-4_1_" gradientUnits="userSpaceOnUse" x1="-919.831" y1="728.8814" x2="-920.4" y2="728.8794" gradientTransform="matrix(9.638 0 0 -2.6 8850.9492 2332.8784)">
								<stop  offset="0" style="stop-color:#7A3D06"/>
								<stop  offset="1" style="stop-color:#A65806"/>
							</linearGradient>
							<path id="Subtraction_68-4_3_" class="st32" d="M-23.9,439.1L-23.9,439.1c-0.1-0.2-0.1-0.3-0.1-0.5c0-1.2,1.4-2.1,3.2-2.1
								h3.2c1.8,0,3.2,0.9,3.2,2.1c0,0.2,0,0.3-0.1,0.5c-0.6-1.1-1.9-1.7-3.1-1.6h-3.2C-22.1,437.3-23.3,437.9-23.9,439.1
								L-23.9,439.1z"/>
						</g>
						<g transform="matrix(1, 0, 0, 1, -143.02, -143.6)">
							
								<linearGradient id="Subtraction_69-4_1_" gradientUnits="userSpaceOnUse" x1="-919.8311" y1="728.8929" x2="-920.4001" y2="728.8909" gradientTransform="matrix(9.638 0 0 -2.6 8850.9492 2331.9084)">
								<stop  offset="0" style="stop-color:#7A3D06"/>
								<stop  offset="1" style="stop-color:#A65806"/>
							</linearGradient>
							<path id="Subtraction_69-4_3_" class="st33" d="M-23.9,438.1L-23.9,438.1c-0.1-0.2-0.1-0.3-0.1-0.5c0-1.2,1.4-2.1,3.2-2.1
								h3.2c1.8,0,3.2,0.9,3.2,2.1c0,0.2,0,0.3-0.1,0.5c-0.6-1.1-1.9-1.7-3.1-1.6h-3.2C-22.1,436.3-23.3,437-23.9,438.1L-23.9,438.1
								z"/>
						</g>
						
							<linearGradient id="Path_435_1_" gradientUnits="userSpaceOnUse" x1="-1332.5079" y1="690.8864" x2="-1333.0769" y2="690.8843" gradientTransform="matrix(8.113 0 0 -42.98 10652.4131 30008.0098)">
							<stop  offset="0" style="stop-color:#7A3D06"/>
							<stop  offset="1" style="stop-color:#A65806"/>
						</linearGradient>
						<path id="Path_435_5_" class="st34" d="M-166.3,292.3h8.1v43h-8.1V292.3z"/>
						<g transform="matrix(1, 0, 0, 1, -143.02, -143.6)">
							
								<linearGradient id="Subtraction_79-4_1_" gradientUnits="userSpaceOnUse" x1="-919.8305" y1="729.0405" x2="-920.3995" y2="729.0386" gradientTransform="matrix(9.638 0 0 -2.6025 8850.9492 2354.2664)">
								<stop  offset="0" style="stop-color:#7A3D06"/>
								<stop  offset="1" style="stop-color:#A65806"/>
							</linearGradient>
							<path id="Subtraction_79-4_3_" class="st35" d="M-17.6,458.3h-3.2c-1.8,0-3.2-0.9-3.2-2.1c0-0.2,0-0.3,0.1-0.5
								c0.6,1.1,1.9,1.7,3.1,1.6h3.2c0.4,0,0.8,0,1.2-0.2c0.8-0.2,1.5-0.7,1.9-1.5c0.1,0.2,0.1,0.3,0.1,0.5c0,0.8-0.7,1.4-2,1.9
								C-16.7,458.3-17.2,458.3-17.6,458.3z"/>
						</g>
						<g transform="matrix(1, 0, 0, 1, -143.02, -143.6)">
							
								<linearGradient id="Subtraction_83-4_1_" gradientUnits="userSpaceOnUse" x1="-919.8304" y1="729.0252" x2="-920.3994" y2="729.0233" gradientTransform="matrix(9.638 0 0 -2.6025 8850.9492 2356.1265)">
								<stop  offset="0" style="stop-color:#7A3D06"/>
								<stop  offset="1" style="stop-color:#A65806"/>
							</linearGradient>
							<path id="Subtraction_83-4_3_" class="st36" d="M-17.6,460.2h-3.2c-1.8,0-3.2-0.9-3.2-2.1c0-0.2,0-0.3,0.1-0.5
								c0.6,1.1,1.9,1.7,3.1,1.6h3.2c0.4,0,0.8,0,1.2-0.2c0.8-0.2,1.5-0.7,1.9-1.5c0.1,0.2,0.1,0.3,0.1,0.5c0,0.8-0.7,1.4-2,1.9
								C-16.7,460.1-17.2,460.2-17.6,460.2z"/>
						</g>
						<g transform="matrix(1, 0, 0, 1, -143.02, -143.6)">
							
								<linearGradient id="Subtraction_81-4_1_" gradientUnits="userSpaceOnUse" x1="-919.8305" y1="729.0449" x2="-920.3995" y2="729.0429" gradientTransform="matrix(9.638 0 0 -2.6025 8850.9492 2355.1965)">
								<stop  offset="0" style="stop-color:#7A3D06"/>
								<stop  offset="1" style="stop-color:#A65806"/>
							</linearGradient>
							<path id="Subtraction_81-4_3_" class="st37" d="M-17.6,459.2h-3.2c-1.8,0-3.2-0.9-3.2-2.1c0-0.2,0-0.3,0.1-0.5
								c0.6,1.1,1.9,1.7,3.1,1.6h3.2c0.4,0,0.8,0,1.2-0.2c0.8-0.2,1.5-0.7,1.9-1.5c0.1,0.2,0.1,0.3,0.1,0.5c0,0.8-0.7,1.4-2,1.9
								C-16.7,459.2-17.2,459.3-17.6,459.2z"/>
						</g>
						<g transform="matrix(1, 0, 0, 1, -143.02, -143.6)">
							
								<linearGradient id="Subtraction_77-4_1_" gradientUnits="userSpaceOnUse" x1="-919.8304" y1="729.0251" x2="-920.3994" y2="729.0233" gradientTransform="matrix(9.638 0 0 -2.6025 8850.9492 2353.3264)">
								<stop  offset="0" style="stop-color:#7A3D06"/>
								<stop  offset="1" style="stop-color:#A65806"/>
							</linearGradient>
							<path id="Subtraction_77-4_3_" class="st38" d="M-17.6,457.4h-3.2c-1.8,0-3.2-0.9-3.2-2.1c0-0.2,0-0.3,0.1-0.5
								c0.6,1.1,1.9,1.7,3.1,1.6h3.2c0.4,0,0.8,0,1.2-0.2c0.8-0.2,1.5-0.7,1.9-1.5c0.1,0.2,0.1,0.3,0.1,0.5c0,0.8-0.7,1.4-2,1.9
								C-16.7,457.3-17.2,457.4-17.6,457.4z"/>
						</g>
						<g transform="matrix(1, 0, 0, 1, -143.02, -143.6)">
							
								<linearGradient id="Subtraction_87-4_1_" gradientUnits="userSpaceOnUse" x1="-919.8304" y1="729.0213" x2="-920.3994" y2="729.0193" gradientTransform="matrix(9.638 0 0 -2.6025 8850.9492 2374.7163)">
								<stop  offset="0" style="stop-color:#7A3D06"/>
								<stop  offset="1" style="stop-color:#A65806"/>
							</linearGradient>
							<path id="Subtraction_87-4_3_" class="st39" d="M-17.6,478.8h-3.2c-1.8,0-3.2-0.9-3.2-2.1c0-0.2,0-0.3,0.1-0.5
								c0.6,1.1,1.9,1.7,3.1,1.6h3.2c0.4,0,0.8,0,1.2-0.2c0.8-0.2,1.5-0.7,1.9-1.5c0.1,0.2,0.1,0.3,0.1,0.5c0,0.8-0.7,1.4-2,1.9
								C-16.7,478.7-17.2,478.8-17.6,478.8z"/>
						</g>
						<g transform="matrix(1, 0, 0, 1, -143.02, -143.6)">
							
								<linearGradient id="Subtraction_85-4_1_" gradientUnits="userSpaceOnUse" x1="-919.8304" y1="729.0328" x2="-920.3995" y2="729.0309" gradientTransform="matrix(9.638 0 0 -2.6025 8850.9492 2373.7463)">
								<stop  offset="0" style="stop-color:#7A3D06"/>
								<stop  offset="1" style="stop-color:#A65806"/>
							</linearGradient>
							<path id="Subtraction_85-4_3_" class="st40" d="M-17.6,477.8h-3.2c-1.8,0-3.2-0.9-3.2-2.1c0-0.2,0-0.3,0.1-0.5
								c0.6,1.1,1.9,1.7,3.1,1.6h3.2c0.4,0,0.8,0,1.2-0.2c0.8-0.2,1.5-0.7,1.9-1.5c0.1,0.2,0.1,0.3,0.1,0.5c0,0.8-0.7,1.4-2,1.9
								C-16.7,477.8-17.2,477.8-17.6,477.8z"/>
						</g>
						<g transform="matrix(1, 0, 0, 1, -143.02, -143.6)">
							
								<linearGradient id="Subtraction_78-4_1_" gradientUnits="userSpaceOnUse" x1="-919.8304" y1="729.0251" x2="-920.3994" y2="729.0233" gradientTransform="matrix(9.638 0 0 -2.6025 8850.9492 2353.3264)">
								<stop  offset="0" style="stop-color:#7A3D06"/>
								<stop  offset="1" style="stop-color:#A65806"/>
							</linearGradient>
							<path id="Subtraction_78-4_3_" class="st41" d="M-17.6,457.4h-3.2c-1.8,0-3.2-0.9-3.2-2.1c0-0.2,0-0.3,0.1-0.5
								c0.6,1.1,1.9,1.7,3.1,1.6h3.2c0.4,0,0.8,0,1.2-0.2c0.8-0.2,1.5-0.7,1.9-1.5c0.1,0.2,0.1,0.3,0.1,0.5c0,0.8-0.7,1.4-2,1.9
								C-16.7,457.3-17.2,457.4-17.6,457.4z"/>
						</g>
						<g transform="matrix(1, 0, 0, 1, -143.02, -143.6)">
							
								<linearGradient id="Subtraction_82-4_1_" gradientUnits="userSpaceOnUse" x1="-919.8305" y1="729.0449" x2="-920.3995" y2="729.0429" gradientTransform="matrix(9.638 0 0 -2.6025 8850.9492 2355.1965)">
								<stop  offset="0" style="stop-color:#7A3D06"/>
								<stop  offset="1" style="stop-color:#A65806"/>
							</linearGradient>
							<path id="Subtraction_82-4_3_" class="st42" d="M-17.6,459.2h-3.2c-1.8,0-3.2-0.9-3.2-2.1c0-0.2,0-0.3,0.1-0.5
								c0.6,1.1,1.9,1.7,3.1,1.6h3.2c0.4,0,0.8,0,1.2-0.2c0.8-0.2,1.5-0.7,1.9-1.5c0.1,0.2,0.1,0.3,0.1,0.5c0,0.8-0.7,1.4-2,1.9
								C-16.7,459.2-17.2,459.3-17.6,459.2z"/>
						</g>
						<g transform="matrix(1, 0, 0, 1, -143.02, -143.6)">
							
								<linearGradient id="Subtraction_80-4_1_" gradientUnits="userSpaceOnUse" x1="-919.8305" y1="729.0405" x2="-920.3995" y2="729.0386" gradientTransform="matrix(9.638 0 0 -2.6025 8850.9492 2354.2664)">
								<stop  offset="0" style="stop-color:#7A3D06"/>
								<stop  offset="1" style="stop-color:#A65806"/>
							</linearGradient>
							<path id="Subtraction_80-4_3_" class="st43" d="M-17.6,458.3h-3.2c-1.8,0-3.2-0.9-3.2-2.1c0-0.2,0-0.3,0.1-0.5
								c0.6,1.1,1.9,1.7,3.1,1.6h3.2c0.4,0,0.8,0,1.2-0.2c0.8-0.2,1.5-0.7,1.9-1.5c0.1,0.2,0.1,0.3,0.1,0.5c0,0.8-0.7,1.4-2,1.9
								C-16.7,458.3-17.2,458.3-17.6,458.3z"/>
						</g>
						<g transform="matrix(1, 0, 0, 1, -143.02, -143.6)">
							
								<linearGradient id="Subtraction_75-4_1_" gradientUnits="userSpaceOnUse" x1="-919.8305" y1="729.0449" x2="-920.3995" y2="729.0428" gradientTransform="matrix(9.638 0 0 -2.6025 8850.9492 2352.3965)">
								<stop  offset="0" style="stop-color:#7A3D06"/>
								<stop  offset="1" style="stop-color:#A65806"/>
							</linearGradient>
							<path id="Subtraction_75-4_3_" class="st44" d="M-17.6,456.4h-3.2c-1.8,0-3.2-0.9-3.2-2.1c0-0.2,0-0.3,0.1-0.5
								c0.6,1.1,1.9,1.7,3.1,1.6h3.2c0.4,0,0.8,0,1.2-0.2c0.8-0.2,1.5-0.7,1.9-1.5c0.1,0.2,0.1,0.3,0.1,0.5c0,0.8-0.7,1.4-2,1.9
								C-16.7,456.4-17.2,456.5-17.6,456.4z"/>
						</g>
						<g transform="matrix(1, 0, 0, 1, -143.02, -143.6)">
							
								<linearGradient id="Subtraction_86-4_1_" gradientUnits="userSpaceOnUse" x1="-919.8304" y1="729.0328" x2="-920.3995" y2="729.0309" gradientTransform="matrix(9.638 0 0 -2.6025 8850.9492 2373.7463)">
								<stop  offset="0" style="stop-color:#7A3D06"/>
								<stop  offset="1" style="stop-color:#A65806"/>
							</linearGradient>
							<path id="Subtraction_86-4_3_" class="st45" d="M-17.6,477.8h-3.2c-1.8,0-3.2-0.9-3.2-2.1c0-0.2,0-0.3,0.1-0.5
								c0.6,1.1,1.9,1.7,3.1,1.6h3.2c0.4,0,0.8,0,1.2-0.2c0.8-0.2,1.5-0.7,1.9-1.5c0.1,0.2,0.1,0.3,0.1,0.5c0,0.8-0.7,1.4-2,1.9
								C-16.7,477.8-17.2,477.8-17.6,477.8z"/>
						</g>
						<g transform="matrix(1, 0, 0, 1, -143.02, -143.6)">
							
								<linearGradient id="Subtraction_84-4_1_" gradientUnits="userSpaceOnUse" x1="-919.8305" y1="729.0405" x2="-920.3995" y2="729.0386" gradientTransform="matrix(9.638 0 0 -2.6025 8850.9492 2372.7664)">
								<stop  offset="0" style="stop-color:#7A3D06"/>
								<stop  offset="1" style="stop-color:#A65806"/>
							</linearGradient>
							<path id="Subtraction_84-4_3_" class="st46" d="M-17.6,476.8h-3.2c-1.8,0-3.2-0.9-3.2-2.1c0-0.2,0-0.3,0.1-0.5
								c0.6,1.1,1.9,1.7,3.1,1.6h3.2c0.4,0,0.8,0,1.2-0.2c0.8-0.2,1.5-0.7,1.9-1.5c0.1,0.2,0.1,0.3,0.1,0.5c0,0.8-0.7,1.4-2,1.9
								C-16.7,476.8-17.2,476.8-17.6,476.8z"/>
						</g>
						<g transform="matrix(1, 0, 0, 1, -143.02, -143.6)">
							
								<linearGradient id="Subtraction_70-4_1_" gradientUnits="userSpaceOnUse" x1="-919.8305" y1="729.0483" x2="-920.3995" y2="729.0463" gradientTransform="matrix(9.638 0 0 -2.6025 8850.9492 2338.5864)">
								<stop  offset="0" style="stop-color:#7A3D06"/>
								<stop  offset="1" style="stop-color:#A65806"/>
							</linearGradient>
							<path id="Subtraction_70-4_3_" class="st47" d="M-17.6,442.6h-3.2c-1.8,0-3.2-0.9-3.2-2.1c0-0.2,0-0.3,0.1-0.5
								c0.6,1.1,1.9,1.7,3.1,1.6h3.2c0.4,0,0.8,0,1.2-0.2c0.8-0.2,1.5-0.7,1.9-1.5c0.1,0.2,0.1,0.3,0.1,0.5c0,0.8-0.7,1.4-2,1.9
								C-16.7,442.6-17.2,442.6-17.6,442.6z"/>
						</g>
						<g transform="matrix(1, 0, 0, 1, -143.02, -143.6)">
							
								<linearGradient id="Subtraction_71-4_1_" gradientUnits="userSpaceOnUse" x1="-919.8305" y1="729.0487" x2="-920.3995" y2="729.0467" gradientTransform="matrix(9.638 0 0 -2.6025 8850.9492 2337.6064)">
								<stop  offset="0" style="stop-color:#7A3D06"/>
								<stop  offset="1" style="stop-color:#A65806"/>
							</linearGradient>
							<path id="Subtraction_71-4_3_" class="st48" d="M-17.6,441.6h-3.2c-1.8,0-3.2-0.9-3.2-2.1c0-0.2,0-0.3,0.1-0.5
								c0.6,1.1,1.9,1.7,3.1,1.6h3.2c0.4,0,0.8,0,1.2-0.2c0.8-0.2,1.5-0.7,1.9-1.5c0.1,0.2,0.1,0.3,0.1,0.5c0,0.8-0.7,1.4-2,1.9
								C-16.7,441.6-17.2,441.7-17.6,441.6z"/>
						</g>
						<g transform="matrix(1, 0, 0, 1, -143.02, -143.6)">
							
								<linearGradient id="Subtraction_72-4_1_" gradientUnits="userSpaceOnUse" x1="-919.8304" y1="729.0291" x2="-920.3995" y2="729.027" gradientTransform="matrix(9.638 0 0 -2.6025 8850.9492 2336.6365)">
								<stop  offset="0" style="stop-color:#7A3D06"/>
								<stop  offset="1" style="stop-color:#A65806"/>
							</linearGradient>
							<path id="Subtraction_72-4_3_" class="st49" d="M-17.6,440.7h-3.2c-1.8,0-3.2-0.9-3.2-2.1c0-0.2,0-0.3,0.1-0.5
								c0.6,1.1,1.9,1.7,3.1,1.6h3.2c0.4,0,0.8,0,1.2-0.2c0.8-0.2,1.5-0.7,1.9-1.5c0.1,0.2,0.1,0.3,0.1,0.5c0,0.8-0.7,1.4-2,1.9
								C-16.7,440.6-17.2,440.7-17.6,440.7z"/>
						</g>
						<g transform="matrix(1, 0, 0, 1, -143.02, -143.6)">
							
								<linearGradient id="Subtraction_73-4_1_" gradientUnits="userSpaceOnUse" x1="-919.8305" y1="729.0367" x2="-920.3995" y2="729.0347" gradientTransform="matrix(9.638 0 0 -2.6025 8850.9492 2335.6565)">
								<stop  offset="0" style="stop-color:#7A3D06"/>
								<stop  offset="1" style="stop-color:#A65806"/>
							</linearGradient>
							<path id="Subtraction_73-4_3_" class="st50" d="M-17.6,439.7h-3.2c-1.8,0-3.2-0.9-3.2-2.1c0-0.2,0-0.3,0.1-0.5
								c0.6,1.1,1.9,1.7,3.1,1.6h3.2c0.4,0,0.8,0,1.2-0.2c0.8-0.2,1.5-0.7,1.9-1.5c0.1,0.2,0.1,0.3,0.1,0.5c0,0.8-0.7,1.4-2,1.9
								C-16.7,439.7-17.2,439.7-17.6,439.7z"/>
						</g>
					</g>
					<g id="Group_289_1_" transform="translate(25.484 53.761)">
						<g transform="matrix(1, 0, 0, 1, -57.48, -93.76)">
							
								<linearGradient id="Path_472-5_1_" gradientUnits="userSpaceOnUse" x1="-926.3668" y1="772.0358" x2="-926.9358" y2="772.0339" gradientTransform="matrix(10.416 0 0 -4.2204 9548.9326 3687.0828)">
								<stop  offset="0" style="stop-color:#7A3D06"/>
								<stop  offset="1" style="stop-color:#A65806"/>
							</linearGradient>
							<path id="Path_472-5_2_" class="st51" d="M-107,426.7h3.5c1.9,0,3.5,0.9,3.5,2.1c0,0.8-0.7,1.4-2.1,1.9
								c-0.4,0.1-0.9,0.2-1.3,0.2h-3.5c-1.9,0-3.5-0.9-3.5-2.1S-109,426.7-107,426.7z"/>
						</g>
						<g transform="matrix(1, 0, 0, 1, -57.48, -93.76)">
							
								<linearGradient id="Path_416-5_1_" gradientUnits="userSpaceOnUse" x1="-926.3669" y1="772.0547" x2="-926.9359" y2="772.0528" gradientTransform="matrix(10.416 0 0 -4.2204 9548.9326 3646.0627)">
								<stop  offset="0" style="stop-color:#7A3D06"/>
								<stop  offset="1" style="stop-color:#A65806"/>
							</linearGradient>
							<path id="Path_416-5_2_" class="st52" d="M-107,385.6h3.5c1.9,0,3.5,0.9,3.5,2.1c0,0.8-0.7,1.4-2.1,1.9
								c-0.4,0.1-0.9,0.2-1.3,0.2h-3.5c-1.9,0-3.5-0.9-3.5-2.1S-109,385.6-107,385.6z"/>
						</g>
						<g transform="matrix(1, 0, 0, 1, -57.48, -93.76)">
							
								<linearGradient id="Path_436-5_1_" gradientUnits="userSpaceOnUse" x1="-926.3668" y1="772.0335" x2="-926.9358" y2="772.0315" gradientTransform="matrix(10.416 0 0 -4.2204 9548.9326 3663.7727)">
								<stop  offset="0" style="stop-color:#7A3D06"/>
								<stop  offset="1" style="stop-color:#A65806"/>
							</linearGradient>
							<path id="Path_436-5_2_" class="st53" d="M-107,403.4h3.5c1.9,0,3.5,0.9,3.5,2.1c0,0.8-0.7,1.4-2.1,1.9
								c-0.4,0.1-0.9,0.2-1.3,0.2h-3.5c-1.9,0-3.5-0.9-3.5-2.1S-109,403.4-107,403.4z"/>
						</g>
						<g transform="matrix(1, 0, 0, 1, -57.48, -93.76)">
							
								<linearGradient id="Path_448-5_1_" gradientUnits="userSpaceOnUse" x1="-926.3669" y1="772.0501" x2="-926.9358" y2="772.0481" gradientTransform="matrix(10.416 0 0 -4.2204 9548.9326 3665.6428)">
								<stop  offset="0" style="stop-color:#7A3D06"/>
								<stop  offset="1" style="stop-color:#A65806"/>
							</linearGradient>
							<path id="Path_448-5_2_" class="st54" d="M-107,405.2h3.5c1.9,0,3.5,0.9,3.5,2.1c0,0.8-0.7,1.4-2.1,1.9
								c-0.4,0.1-0.9,0.2-1.3,0.2h-3.5c-1.9,0-3.5-0.9-3.5-2.1S-109,405.2-107,405.2z"/>
						</g>
						<g transform="matrix(1, 0, 0, 1, -57.48, -93.76)">
							
								<linearGradient id="Path_449-5_1_" gradientUnits="userSpaceOnUse" x1="-926.3669" y1="772.0501" x2="-926.9358" y2="772.0481" gradientTransform="matrix(10.416 0 0 -4.2204 9548.9326 3665.6428)">
								<stop  offset="0" style="stop-color:#7A3D06"/>
								<stop  offset="1" style="stop-color:#A65806"/>
							</linearGradient>
							<path id="Path_449-5_2_" class="st55" d="M-107,405.2h3.5c1.9,0,3.5,0.9,3.5,2.1c0,0.8-0.7,1.4-2.1,1.9
								c-0.4,0.1-0.9,0.2-1.3,0.2h-3.5c-1.9,0-3.5-0.9-3.5-2.1S-109,405.2-107,405.2z"/>
						</g>
						<g transform="matrix(1, 0, 0, 1, -57.48, -93.76)">
							
								<linearGradient id="Path_454-5_1_" gradientUnits="userSpaceOnUse" x1="-926.3668" y1="772.0335" x2="-926.9358" y2="772.0315" gradientTransform="matrix(10.416 0 0 -4.2204 9548.9326 3666.5728)">
								<stop  offset="0" style="stop-color:#7A3D06"/>
								<stop  offset="1" style="stop-color:#A65806"/>
							</linearGradient>
							<path id="Path_454-5_2_" class="st56" d="M-107,406.2h3.5c1.9,0,3.5,0.9,3.5,2.1c0,0.8-0.7,1.4-2.1,1.9
								c-0.4,0.1-0.9,0.2-1.3,0.2h-3.5c-1.9,0-3.5-0.9-3.5-2.1C-110.5,407.1-109,406.2-107,406.2z"/>
						</g>
						<g transform="matrix(1, 0, 0, 1, -57.48, -93.76)">
							
								<linearGradient id="Path_441-5_1_" gradientUnits="userSpaceOnUse" x1="-926.3668" y1="772.0429" x2="-926.9358" y2="772.041" gradientTransform="matrix(10.416 0 0 -4.2204 9548.9326 3664.7129)">
								<stop  offset="0" style="stop-color:#7A3D06"/>
								<stop  offset="1" style="stop-color:#A65806"/>
							</linearGradient>
							<path id="Path_441-5_2_" class="st57" d="M-107,404.3h3.5c1.9,0,3.5,0.9,3.5,2.1c0,0.8-0.7,1.4-2.1,1.9
								c-0.4,0.1-0.9,0.2-1.3,0.2h-3.5c-1.9,0-3.5-0.9-3.5-2.1S-109,404.3-107,404.3z"/>
						</g>
						<g transform="matrix(1, 0, 0, 1, -57.48, -93.76)">
							
								<linearGradient id="Path_469-5_1_" gradientUnits="userSpaceOnUse" x1="-926.3668" y1="772.0405" x2="-926.9358" y2="772.0386" gradientTransform="matrix(10.416 0 0 -4.2204 9548.9326 3686.1028)">
								<stop  offset="0" style="stop-color:#7A3D06"/>
								<stop  offset="1" style="stop-color:#A65806"/>
							</linearGradient>
							<path id="Path_469-5_2_" class="st58" d="M-107,425.7h3.5c1.9,0,3.5,0.9,3.5,2.1c0,0.8-0.7,1.4-2.1,1.9
								c-0.4,0.1-0.9,0.2-1.3,0.2h-3.5c-1.9,0-3.5-0.9-3.5-2.1C-110.5,426.6-109,425.7-107,425.7z"/>
						</g>
						<g transform="matrix(1, 0, 0, 1, -57.48, -93.76)">
							
								<linearGradient id="Path_462-5_1_" gradientUnits="userSpaceOnUse" x1="-926.3669" y1="772.0525" x2="-926.9358" y2="772.0505" gradientTransform="matrix(10.416 0 0 -4.2204 9548.9326 3684.1528)">
								<stop  offset="0" style="stop-color:#7A3D06"/>
								<stop  offset="1" style="stop-color:#A65806"/>
							</linearGradient>
							<path id="Path_462-5_2_" class="st59" d="M-107,423.7h3.5c1.9,0,3.5,0.9,3.5,2.1c0,0.8-0.7,1.4-2.1,1.9
								c-0.4,0.1-0.9,0.2-1.3,0.2h-3.5c-1.9,0-3.5-0.9-3.5-2.1S-109,423.7-107,423.7z"/>
						</g>
						<g transform="matrix(1, 0, 0, 1, -57.48, -93.76)">
							
								<linearGradient id="Path_417-5_1_" gradientUnits="userSpaceOnUse" x1="-926.3669" y1="772.05" x2="-926.9358" y2="772.0481" gradientTransform="matrix(10.416 0 0 -4.2204 9548.9326 3647.0427)">
								<stop  offset="0" style="stop-color:#7A3D06"/>
								<stop  offset="1" style="stop-color:#A65806"/>
							</linearGradient>
							<path id="Path_417-5_2_" class="st60" d="M-107,386.6h3.5c1.9,0,3.5,0.9,3.5,2.1c0,0.8-0.7,1.4-2.1,1.9
								c-0.4,0.1-0.9,0.2-1.3,0.2h-3.5c-1.9,0-3.5-0.9-3.5-2.1C-110.5,387.6-109,386.6-107,386.6z"/>
						</g>
						<g transform="matrix(1, 0, 0, 1, -57.48, -93.76)">
							
								<linearGradient id="Path_418-5_1_" gradientUnits="userSpaceOnUse" x1="-926.3669" y1="772.0452" x2="-926.9358" y2="772.0433" gradientTransform="matrix(10.416 0 0 -4.2204 9548.9326 3648.0227)">
								<stop  offset="0" style="stop-color:#7A3D06"/>
								<stop  offset="1" style="stop-color:#A65806"/>
							</linearGradient>
							<path id="Path_418-5_2_" class="st61" d="M-107,387.6h3.5c1.9,0,3.5,0.9,3.5,2.1c0,0.8-0.7,1.4-2.1,1.9
								c-0.4,0.1-0.9,0.2-1.3,0.2h-3.5c-1.9,0-3.5-0.9-3.5-2.1S-109,387.6-107,387.6z"/>
						</g>
						<g transform="matrix(1, 0, 0, 1, -57.48, -93.76)">
							
								<linearGradient id="Subtraction_76-5_1_" gradientUnits="userSpaceOnUse" x1="-907.7341" y1="728.9034" x2="-908.303" y2="728.9013" gradientTransform="matrix(8.461 0 0 -2.6 7579.2515 2300.7354)">
								<stop  offset="0" style="stop-color:#7A3D06"/>
								<stop  offset="1" style="stop-color:#A65806"/>
							</linearGradient>
							<path id="Subtraction_76-5_2_" class="st62" d="M-109.5,406.9L-109.5,406.9c-0.1-0.2-0.1-0.3-0.1-0.5c0-1.2,1.3-2.1,2.8-2.1
								h2.8c1.6,0,2.8,0.9,2.8,2.1c0,0.2,0,0.3-0.1,0.5c-0.5-1.1-1.6-1.7-2.7-1.6h-2.8C-107.9,405.2-109,405.9-109.5,406.9
								L-109.5,406.9z"/>
						</g>
						<g transform="matrix(1, 0, 0, 1, -57.48, -93.76)">
							
								<linearGradient id="Subtraction_74-5_1_" gradientUnits="userSpaceOnUse" x1="-907.7341" y1="728.8881" x2="-908.303" y2="728.8859" gradientTransform="matrix(8.461 0 0 -2.6 7579.2515 2299.7954)">
								<stop  offset="0" style="stop-color:#7A3D06"/>
								<stop  offset="1" style="stop-color:#A65806"/>
							</linearGradient>
							<path id="Subtraction_74-5_2_" class="st63" d="M-109.5,406L-109.5,406c-0.1-0.2-0.1-0.3-0.1-0.5c0-1.2,1.3-2.1,2.8-2.1h2.8
								c1.6,0,2.8,0.9,2.8,2.1c0,0.2,0,0.3-0.1,0.5c-0.5-1.1-1.6-1.7-2.7-1.6h-2.8C-107.9,404.3-109,404.9-109.5,406L-109.5,406z"/>
						</g>
						<g transform="matrix(1, 0, 0, 1, -57.48, -93.76)">
							
								<linearGradient id="Subtraction_66-5_1_" gradientUnits="userSpaceOnUse" x1="-907.7341" y1="728.8842" x2="-908.303" y2="728.882" gradientTransform="matrix(8.461 0 0 -2.6 7579.2515 2284.9854)">
								<stop  offset="0" style="stop-color:#7A3D06"/>
								<stop  offset="1" style="stop-color:#A65806"/>
							</linearGradient>
							<path id="Subtraction_66-5_2_" class="st64" d="M-109.5,391.2L-109.5,391.2c-0.1-0.2-0.1-0.3-0.1-0.5c0-1.2,1.3-2.1,2.8-2.1
								h2.8c1.6,0,2.8,0.9,2.8,2.1c0,0.2,0,0.3-0.1,0.5c-0.5-1.1-1.6-1.7-2.7-1.6h-2.8C-107.9,389.5-109,390.1-109.5,391.2
								L-109.5,391.2z"/>
						</g>
						<g transform="matrix(1, 0, 0, 1, -57.48, -93.76)">
							
								<linearGradient id="Subtraction_67-5_1_" gradientUnits="userSpaceOnUse" x1="-907.7341" y1="728.8957" x2="-908.303" y2="728.8936" gradientTransform="matrix(8.461 0 0 -2.6 7579.2515 2284.0154)">
								<stop  offset="0" style="stop-color:#7A3D06"/>
								<stop  offset="1" style="stop-color:#A65806"/>
							</linearGradient>
							<path id="Subtraction_67-5_2_" class="st65" d="M-109.5,390.2L-109.5,390.2c-0.1-0.2-0.1-0.3-0.1-0.5c0-1.2,1.3-2.1,2.8-2.1
								h2.8c1.6,0,2.8,0.9,2.8,2.1c0,0.2,0,0.3-0.1,0.5c-0.5-1.1-1.6-1.7-2.7-1.6h-2.8C-107.9,388.5-109,389.1-109.5,390.2
								L-109.5,390.2z"/>
						</g>
						<g transform="matrix(1, 0, 0, 1, -57.48, -93.76)">
							
								<linearGradient id="Subtraction_68-5_1_" gradientUnits="userSpaceOnUse" x1="-907.7341" y1="728.9034" x2="-908.303" y2="728.9013" gradientTransform="matrix(8.461 0 0 -2.6 7579.2515 2283.0354)">
								<stop  offset="0" style="stop-color:#7A3D06"/>
								<stop  offset="1" style="stop-color:#A65806"/>
							</linearGradient>
							<path id="Subtraction_68-5_2_" class="st66" d="M-109.5,389.2L-109.5,389.2c-0.1-0.2-0.1-0.3-0.1-0.5c0-1.2,1.3-2.1,2.8-2.1
								h2.8c1.6,0,2.8,0.9,2.8,2.1c0,0.2,0,0.3-0.1,0.5c-0.5-1.1-1.6-1.7-2.7-1.6h-2.8C-107.9,387.5-109,388.2-109.5,389.2
								L-109.5,389.2z"/>
						</g>
						<g transform="matrix(1, 0, 0, 1, -57.48, -93.76)">
							
								<linearGradient id="Subtraction_69-5_1_" gradientUnits="userSpaceOnUse" x1="-907.7339" y1="728.8727" x2="-908.303" y2="728.8705" gradientTransform="matrix(8.461 0 0 -2.6 7579.2515 2282.0554)">
								<stop  offset="0" style="stop-color:#7A3D06"/>
								<stop  offset="1" style="stop-color:#A65806"/>
							</linearGradient>
							<path id="Subtraction_69-5_2_" class="st67" d="M-109.5,388.3L-109.5,388.3c-0.1-0.2-0.1-0.3-0.1-0.5c0-1.2,1.3-2.1,2.8-2.1
								h2.8c1.6,0,2.8,0.9,2.8,2.1c0,0.2,0,0.3-0.1,0.5c-0.5-1.1-1.6-1.7-2.7-1.6h-2.8C-107.9,386.5-109,387.2-109.5,388.3
								L-109.5,388.3z"/>
						</g>
						
							<linearGradient id="Path_435-2_2_" gradientUnits="userSpaceOnUse" x1="-1058.3451" y1="740.7214" x2="-1058.9141" y2="740.7194" gradientTransform="matrix(6.936 0 0 -42.98 7181.2822 32149.918)">
							<stop  offset="0" style="stop-color:#7A3D06"/>
							<stop  offset="1" style="stop-color:#A65806"/>
						</linearGradient>
						<path id="Path_435-2_1_" class="st68" d="M-166.3,292.3h6.9v43h-6.9V292.3z"/>
						<g transform="matrix(1, 0, 0, 1, -57.48, -93.76)">
							
								<linearGradient id="Subtraction_79-5_1_" gradientUnits="userSpaceOnUse" x1="-907.7451" y1="729.0091" x2="-908.3141" y2="729.0071" gradientTransform="matrix(8.462 0 0 -2.6024 7580.2573 2304.3118)">
								<stop  offset="0" style="stop-color:#7A3D06"/>
								<stop  offset="1" style="stop-color:#A65806"/>
							</linearGradient>
							<path id="Subtraction_79-5_2_" class="st69" d="M-103.9,408.5h-2.8c-1.6,0-2.8-0.9-2.8-2.1c0-0.2,0-0.3,0.1-0.5
								c0.5,1.1,1.6,1.7,2.7,1.6h2.8c0.4,0,0.7,0,1.1-0.2c0.7-0.2,1.3-0.8,1.7-1.5c0.1,0.2,0.1,0.3,0.1,0.5c0,0.8-0.6,1.4-1.7,1.9
								C-103.2,408.4-103.5,408.5-103.9,408.5z"/>
						</g>
						<g transform="matrix(1, 0, 0, 1, -57.48, -93.76)">
							
								<linearGradient id="Subtraction_83-5_1_" gradientUnits="userSpaceOnUse" x1="-907.7452" y1="729.0287" x2="-908.3141" y2="729.0268" gradientTransform="matrix(8.462 0 0 -2.6024 7580.2573 2306.1816)">
								<stop  offset="0" style="stop-color:#7A3D06"/>
								<stop  offset="1" style="stop-color:#A65806"/>
							</linearGradient>
							<path id="Subtraction_83-5_2_" class="st70" d="M-103.9,410.3h-2.8c-1.6,0-2.8-0.9-2.8-2.1c0-0.2,0-0.3,0.1-0.5
								c0.5,1.1,1.6,1.7,2.7,1.6h2.8c0.4,0,0.7,0,1.1-0.2c0.7-0.2,1.3-0.8,1.7-1.5c0.1,0.2,0.1,0.3,0.1,0.5c0,0.8-0.6,1.4-1.7,1.9
								C-103.2,410.3-103.5,410.4-103.9,410.3z"/>
						</g>
						<g transform="matrix(1, 0, 0, 1, -57.48, -93.76)">
							
								<linearGradient id="Subtraction_81-5_1_" gradientUnits="userSpaceOnUse" x1="-907.7452" y1="729.0245" x2="-908.3141" y2="729.0225" gradientTransform="matrix(8.462 0 0 -2.6024 7580.2573 2305.2517)">
								<stop  offset="0" style="stop-color:#7A3D06"/>
								<stop  offset="1" style="stop-color:#A65806"/>
							</linearGradient>
							<path id="Subtraction_81-5_2_" class="st71" d="M-103.9,409.4h-2.8c-1.6,0-2.8-0.9-2.8-2.1c0-0.2,0-0.3,0.1-0.5
								c0.5,1.1,1.6,1.7,2.7,1.6h2.8c0.4,0,0.7,0,1.1-0.2c0.7-0.2,1.3-0.8,1.7-1.5c0.1,0.2,0.1,0.3,0.1,0.5c0,0.8-0.6,1.4-1.7,1.9
								C-103.2,409.4-103.5,409.4-103.9,409.4z"/>
						</g>
						<g transform="matrix(1, 0, 0, 1, -57.48, -93.76)">
							
								<linearGradient id="Subtraction_77-5_1_" gradientUnits="userSpaceOnUse" x1="-907.7452" y1="729.0287" x2="-908.3141" y2="729.0267" gradientTransform="matrix(8.462 0 0 -2.6024 7580.2573 2303.3816)">
								<stop  offset="0" style="stop-color:#7A3D06"/>
								<stop  offset="1" style="stop-color:#A65806"/>
							</linearGradient>
							<path id="Subtraction_77-5_2_" class="st72" d="M-103.9,407.5h-2.8c-1.6,0-2.8-0.9-2.8-2.1c0-0.2,0-0.3,0.1-0.5
								c0.5,1.1,1.6,1.7,2.7,1.6h2.8c0.4,0,0.7,0,1.1-0.2c0.7-0.2,1.3-0.8,1.7-1.5c0.1,0.2,0.1,0.3,0.1,0.5c0,0.8-0.6,1.4-1.7,1.9
								C-103.2,407.5-103.5,407.6-103.9,407.5z"/>
						</g>
						<g transform="matrix(1, 0, 0, 1, -57.48, -93.76)">
							
								<linearGradient id="Subtraction_87-5_1_" gradientUnits="userSpaceOnUse" x1="-907.7452" y1="729.0322" x2="-908.3141" y2="729.0302" gradientTransform="matrix(8.462 0 0 -2.6024 7580.2573 2324.7717)">
								<stop  offset="0" style="stop-color:#7A3D06"/>
								<stop  offset="1" style="stop-color:#A65806"/>
							</linearGradient>
							<path id="Subtraction_87-5_2_" class="st73" d="M-103.9,428.9h-2.8c-1.6,0-2.8-0.9-2.8-2.1c0-0.2,0-0.3,0.1-0.5
								c0.5,1.1,1.6,1.7,2.7,1.6h2.8c0.4,0,0.7,0,1.1-0.2c0.7-0.2,1.3-0.8,1.7-1.5c0.1,0.2,0.1,0.3,0.1,0.5c0,0.8-0.6,1.4-1.7,1.9
								C-103.2,428.9-103.5,428.9-103.9,428.9z"/>
						</g>
						<g transform="matrix(1, 0, 0, 1, -57.48, -93.76)">
							
								<linearGradient id="Subtraction_85-5_1_" gradientUnits="userSpaceOnUse" x1="-907.7451" y1="729.0014" x2="-908.3141" y2="728.9995" gradientTransform="matrix(8.462 0 0 -2.6024 7580.2573 2323.7917)">
								<stop  offset="0" style="stop-color:#7A3D06"/>
								<stop  offset="1" style="stop-color:#A65806"/>
							</linearGradient>
							<path id="Subtraction_85-5_2_" class="st74" d="M-103.9,428h-2.8c-1.6,0-2.8-0.9-2.8-2.1c0-0.2,0-0.3,0.1-0.5
								c0.5,1.1,1.6,1.7,2.7,1.6h2.8c0.4,0,0.7,0,1.1-0.2c0.7-0.2,1.3-0.8,1.7-1.5c0.1,0.2,0.1,0.3,0.1,0.5c0,0.8-0.6,1.4-1.7,1.9
								C-103.2,427.9-103.5,428-103.9,428z"/>
						</g>
						<g transform="matrix(1, 0, 0, 1, -57.48, -93.76)">
							
								<linearGradient id="Subtraction_78-5_1_" gradientUnits="userSpaceOnUse" x1="-907.7452" y1="729.0287" x2="-908.3141" y2="729.0267" gradientTransform="matrix(8.462 0 0 -2.6024 7580.2573 2303.3816)">
								<stop  offset="0" style="stop-color:#7A3D06"/>
								<stop  offset="1" style="stop-color:#A65806"/>
							</linearGradient>
							<path id="Subtraction_78-5_2_" class="st75" d="M-103.9,407.5h-2.8c-1.6,0-2.8-0.9-2.8-2.1c0-0.2,0-0.3,0.1-0.5
								c0.5,1.1,1.6,1.7,2.7,1.6h2.8c0.4,0,0.7,0,1.1-0.2c0.7-0.2,1.3-0.8,1.7-1.5c0.1,0.2,0.1,0.3,0.1,0.5c0,0.8-0.6,1.4-1.7,1.9
								C-103.2,407.5-103.5,407.6-103.9,407.5z"/>
						</g>
						<g transform="matrix(1, 0, 0, 1, -57.48, -93.76)">
							
								<linearGradient id="Subtraction_82-5_1_" gradientUnits="userSpaceOnUse" x1="-907.7452" y1="729.0245" x2="-908.3141" y2="729.0225" gradientTransform="matrix(8.462 0 0 -2.6024 7580.2573 2305.2517)">
								<stop  offset="0" style="stop-color:#7A3D06"/>
								<stop  offset="1" style="stop-color:#A65806"/>
							</linearGradient>
							<path id="Subtraction_82-5_2_" class="st76" d="M-103.9,409.4h-2.8c-1.6,0-2.8-0.9-2.8-2.1c0-0.2,0-0.3,0.1-0.5
								c0.5,1.1,1.6,1.7,2.7,1.6h2.8c0.4,0,0.7,0,1.1-0.2c0.7-0.2,1.3-0.8,1.7-1.5c0.1,0.2,0.1,0.3,0.1,0.5c0,0.8-0.6,1.4-1.7,1.9
								C-103.2,409.4-103.5,409.4-103.9,409.4z"/>
						</g>
						<g transform="matrix(1, 0, 0, 1, -57.48, -93.76)">
							
								<linearGradient id="Subtraction_80-5_1_" gradientUnits="userSpaceOnUse" x1="-907.7451" y1="729.0091" x2="-908.3141" y2="729.0071" gradientTransform="matrix(8.462 0 0 -2.6024 7580.2573 2304.3118)">
								<stop  offset="0" style="stop-color:#7A3D06"/>
								<stop  offset="1" style="stop-color:#A65806"/>
							</linearGradient>
							<path id="Subtraction_80-5_2_" class="st77" d="M-103.9,408.5h-2.8c-1.6,0-2.8-0.9-2.8-2.1c0-0.2,0-0.3,0.1-0.5
								c0.5,1.1,1.6,1.7,2.7,1.6h2.8c0.4,0,0.7,0,1.1-0.2c0.7-0.2,1.3-0.8,1.7-1.5c0.1,0.2,0.1,0.3,0.1,0.5c0,0.8-0.6,1.4-1.7,1.9
								C-103.2,408.4-103.5,408.5-103.9,408.5z"/>
						</g>
						<g transform="matrix(1, 0, 0, 1, -57.48, -93.76)">
							
								<linearGradient id="Subtraction_75-5_1_" gradientUnits="userSpaceOnUse" x1="-907.7452" y1="729.0206" x2="-908.3141" y2="729.0187" gradientTransform="matrix(8.462 0 0 -2.6024 7580.2573 2302.4417)">
								<stop  offset="0" style="stop-color:#7A3D06"/>
								<stop  offset="1" style="stop-color:#A65806"/>
							</linearGradient>
							<path id="Subtraction_75-5_2_" class="st78" d="M-103.9,406.6h-2.8c-1.6,0-2.8-0.9-2.8-2.1c0-0.2,0-0.3,0.1-0.5
								c0.5,1.1,1.6,1.7,2.7,1.6h2.8c0.4,0,0.7,0,1.1-0.2c0.7-0.2,1.3-0.8,1.7-1.5c0.1,0.2,0.1,0.3,0.1,0.5c0,0.8-0.6,1.4-1.7,1.9
								C-103.2,406.6-103.5,406.6-103.9,406.6z"/>
						</g>
						<g transform="matrix(1, 0, 0, 1, -57.48, -93.76)">
							
								<linearGradient id="Subtraction_86-5_1_" gradientUnits="userSpaceOnUse" x1="-907.7451" y1="729.0014" x2="-908.3141" y2="728.9995" gradientTransform="matrix(8.462 0 0 -2.6024 7580.2573 2323.7917)">
								<stop  offset="0" style="stop-color:#7A3D06"/>
								<stop  offset="1" style="stop-color:#A65806"/>
							</linearGradient>
							<path id="Subtraction_86-5_2_" class="st79" d="M-103.9,428h-2.8c-1.6,0-2.8-0.9-2.8-2.1c0-0.2,0-0.3,0.1-0.5
								c0.5,1.1,1.6,1.7,2.7,1.6h2.8c0.4,0,0.7,0,1.1-0.2c0.7-0.2,1.3-0.8,1.7-1.5c0.1,0.2,0.1,0.3,0.1,0.5c0,0.8-0.6,1.4-1.7,1.9
								C-103.2,427.9-103.5,428-103.9,428z"/>
						</g>
						<g transform="matrix(1, 0, 0, 1, -57.48, -93.76)">
							
								<linearGradient id="Subtraction_84-5_1_" gradientUnits="userSpaceOnUse" x1="-907.7452" y1="729.0129" x2="-908.3141" y2="729.0109" gradientTransform="matrix(8.462 0 0 -2.6024 7580.2573 2322.8215)">
								<stop  offset="0" style="stop-color:#7A3D06"/>
								<stop  offset="1" style="stop-color:#A65806"/>
							</linearGradient>
							<path id="Subtraction_84-5_2_" class="st80" d="M-103.9,427h-2.8c-1.6,0-2.8-0.9-2.8-2.1c0-0.2,0-0.3,0.1-0.5
								c0.5,1.1,1.6,1.7,2.7,1.6h2.8c0.4,0,0.7,0,1.1-0.2c0.7-0.2,1.3-0.8,1.7-1.5c0.1,0.2,0.1,0.3,0.1,0.5c0,0.8-0.6,1.4-1.7,1.9
								C-103.2,426.9-103.5,427-103.9,427z"/>
						</g>
						<g transform="matrix(1, 0, 0, 1, -57.48, -93.76)">
							
								<linearGradient id="Subtraction_70-5_1_" gradientUnits="userSpaceOnUse" x1="-907.7452" y1="729.0206" x2="-908.3141" y2="729.0186" gradientTransform="matrix(8.462 0 0 -2.6024 7580.2573 2288.6416)">
								<stop  offset="0" style="stop-color:#7A3D06"/>
								<stop  offset="1" style="stop-color:#A65806"/>
							</linearGradient>
							<path id="Subtraction_70-5_2_" class="st81" d="M-103.9,392.8h-2.8c-1.6,0-2.8-0.9-2.8-2.1c0-0.2,0-0.3,0.1-0.5
								c0.5,1.1,1.6,1.7,2.7,1.6h2.8c0.4,0,0.7,0,1.1-0.2c0.7-0.2,1.3-0.8,1.7-1.5c0.1,0.2,0.1,0.3,0.1,0.5c0,0.8-0.6,1.4-1.7,1.9
								C-103.2,392.8-103.5,392.8-103.9,392.8z"/>
						</g>
						<g transform="matrix(1, 0, 0, 1, -57.48, -93.76)">
							
								<linearGradient id="Subtraction_71-5_1_" gradientUnits="userSpaceOnUse" x1="-907.7452" y1="729.0283" x2="-908.3141" y2="729.0262" gradientTransform="matrix(8.462 0 0 -2.6024 7580.2573 2287.6616)">
								<stop  offset="0" style="stop-color:#7A3D06"/>
								<stop  offset="1" style="stop-color:#A65806"/>
							</linearGradient>
							<path id="Subtraction_71-5_2_" class="st82" d="M-103.9,391.8h-2.8c-1.6,0-2.8-0.9-2.8-2.1c0-0.2,0-0.3,0.1-0.5
								c0.5,1.1,1.6,1.7,2.7,1.6h2.8c0.4,0,0.7,0,1.1-0.2c0.7-0.2,1.3-0.8,1.7-1.5c0.1,0.2,0.1,0.3,0.1,0.5c0,0.8-0.6,1.4-1.7,1.9
								C-103.2,391.8-103.5,391.8-103.9,391.8z"/>
						</g>
						<g transform="matrix(1, 0, 0, 1, -57.48, -93.76)">
							
								<linearGradient id="Subtraction_72-5_1_" gradientUnits="userSpaceOnUse" x1="-907.7452" y1="729.0287" x2="-908.3141" y2="729.0268" gradientTransform="matrix(8.462 0 0 -2.6024 7580.2573 2286.6816)">
								<stop  offset="0" style="stop-color:#7A3D06"/>
								<stop  offset="1" style="stop-color:#A65806"/>
							</linearGradient>
							<path id="Subtraction_72-5_2_" class="st83" d="M-103.9,390.8h-2.8c-1.6,0-2.8-0.9-2.8-2.1c0-0.2,0-0.3,0.1-0.5
								c0.5,1.1,1.6,1.7,2.7,1.6h2.8c0.4,0,0.7,0,1.1-0.2c0.7-0.2,1.3-0.8,1.7-1.5c0.1,0.2,0.1,0.3,0.1,0.5c0,0.8-0.6,1.4-1.7,1.9
								C-103.2,390.8-103.5,390.9-103.9,390.8z"/>
						</g>
						<g transform="matrix(1, 0, 0, 1, -57.48, -93.76)">
							
								<linearGradient id="Subtraction_73-5_1_" gradientUnits="userSpaceOnUse" x1="-907.7451" y1="729.0091" x2="-908.3141" y2="729.0071" gradientTransform="matrix(8.462 0 0 -2.6024 7580.2573 2285.7117)">
								<stop  offset="0" style="stop-color:#7A3D06"/>
								<stop  offset="1" style="stop-color:#A65806"/>
							</linearGradient>
							<path id="Subtraction_73-5_2_" class="st84" d="M-103.9,389.9h-2.8c-1.6,0-2.8-0.9-2.8-2.1c0-0.2,0-0.3,0.1-0.5
								c0.5,1.1,1.6,1.7,2.7,1.6h2.8c0.4,0,0.7,0,1.1-0.2c0.7-0.2,1.3-0.8,1.7-1.5c0.1,0.2,0.1,0.3,0.1,0.5c0,0.8-0.6,1.4-1.7,1.9
								C-103.2,389.8-103.5,389.9-103.9,389.9z"/>
						</g>
					</g>
					<g id="Group_297" transform="translate(152.339 80.144)">
						<g transform="matrix(1, 0, 0, 1, -184.34, -120.14)">
							
								<linearGradient id="Path_472-6_2_" gradientUnits="userSpaceOnUse" x1="-926.997" y1="772.0477" x2="-927.566" y2="772.0457" gradientTransform="matrix(10.5 0 0 -4.2204 9760.3086 3710.2324)">
								<stop  offset="0" style="stop-color:#7A3D06"/>
								<stop  offset="1" style="stop-color:#A65806"/>
							</linearGradient>
							<path id="Path_472-6_1_" class="st85" d="M19.8,449.8h3.5c1.9,0,3.5,0.9,3.5,2.1c0,0.8-0.7,1.4-2.1,1.9
								c-0.4,0.1-0.9,0.2-1.4,0.2h-3.5c-1.9,0-3.5-0.9-3.5-2.1C16.3,450.7,17.9,449.8,19.8,449.8z"/>
						</g>
						<g transform="matrix(1, 0, 0, 1, -184.34, -120.14)">
							
								<linearGradient id="Path_416-6_2_" gradientUnits="userSpaceOnUse" x1="-926.997" y1="772.0595" x2="-927.5661" y2="772.0575" gradientTransform="matrix(10.5 0 0 -4.2204 9760.3086 3672.4824)">
								<stop  offset="0" style="stop-color:#7A3D06"/>
								<stop  offset="1" style="stop-color:#A65806"/>
							</linearGradient>
							<path id="Path_416-6_1_" class="st86" d="M19.8,412h3.5c1.9,0,3.5,0.9,3.5,2.1c0,0.8-0.7,1.4-2.1,1.9
								c-0.4,0.1-0.9,0.2-1.4,0.2h-3.5c-1.9,0-3.5-0.9-3.5-2.1C16.3,413,17.9,412,19.8,412z"/>
						</g>
						<g transform="matrix(1, 0, 0, 1, -184.34, -120.14)">
							
								<linearGradient id="Path_436-6_2_" gradientUnits="userSpaceOnUse" x1="-926.997" y1="772.0596" x2="-927.5661" y2="772.0576" gradientTransform="matrix(10.5 0 0 -4.2204 9760.3086 3688.7825)">
								<stop  offset="0" style="stop-color:#7A3D06"/>
								<stop  offset="1" style="stop-color:#A65806"/>
							</linearGradient>
							<path id="Path_436-6_1_" class="st87" d="M19.8,428.3h3.5c1.9,0,3.5,0.9,3.5,2.1c0,0.8-0.7,1.4-2.1,1.9
								c-0.4,0.1-0.9,0.2-1.4,0.2h-3.5c-1.9,0-3.5-0.9-3.5-2.1C16.3,429.3,17.9,428.3,19.8,428.3z"/>
						</g>
						<g transform="matrix(1, 0, 0, 1, -184.34, -120.14)">
							
								<linearGradient id="Path_448-6_2_" gradientUnits="userSpaceOnUse" x1="-926.997" y1="772.0406" x2="-927.566" y2="772.0386" gradientTransform="matrix(10.5 0 0 -4.2204 9760.3086 3690.5024)">
								<stop  offset="0" style="stop-color:#7A3D06"/>
								<stop  offset="1" style="stop-color:#A65806"/>
							</linearGradient>
							<path id="Path_448-6_1_" class="st88" d="M19.8,430.1h3.5c1.9,0,3.5,0.9,3.5,2.1c0,0.8-0.7,1.4-2.1,1.9
								c-0.4,0.1-0.9,0.2-1.4,0.2h-3.5c-1.9,0-3.5-0.9-3.5-2.1S17.9,430.1,19.8,430.1z"/>
						</g>
						<g transform="matrix(1, 0, 0, 1, -184.34, -120.14)">
							
								<linearGradient id="Path_449-6_2_" gradientUnits="userSpaceOnUse" x1="-926.997" y1="772.0406" x2="-927.566" y2="772.0386" gradientTransform="matrix(10.5 0 0 -4.2204 9760.3086 3690.5024)">
								<stop  offset="0" style="stop-color:#7A3D06"/>
								<stop  offset="1" style="stop-color:#A65806"/>
							</linearGradient>
							<path id="Path_449-6_1_" class="st89" d="M19.8,430.1h3.5c1.9,0,3.5,0.9,3.5,2.1c0,0.8-0.7,1.4-2.1,1.9
								c-0.4,0.1-0.9,0.2-1.4,0.2h-3.5c-1.9,0-3.5-0.9-3.5-2.1S17.9,430.1,19.8,430.1z"/>
						</g>
						<g transform="matrix(1, 0, 0, 1, -184.34, -120.14)">
							
								<linearGradient id="Path_454-6_2_" gradientUnits="userSpaceOnUse" x1="-926.997" y1="772.0547" x2="-927.5661" y2="772.0527" gradientTransform="matrix(10.5 0 0 -4.2204 9760.3086 3691.3623)">
								<stop  offset="0" style="stop-color:#7A3D06"/>
								<stop  offset="1" style="stop-color:#A65806"/>
							</linearGradient>
							<path id="Path_454-6_1_" class="st90" d="M19.8,430.9h3.5c1.9,0,3.5,0.9,3.5,2.1c0,0.8-0.7,1.4-2.1,1.9
								c-0.4,0.1-0.9,0.2-1.4,0.2h-3.5c-1.9,0-3.5-0.9-3.5-2.1C16.3,431.9,17.9,430.9,19.8,430.9z"/>
						</g>
						<g transform="matrix(1, 0, 0, 1, -184.34, -120.14)">
							
								<linearGradient id="Path_441-6_2_" gradientUnits="userSpaceOnUse" x1="-926.997" y1="772.05" x2="-927.566" y2="772.048" gradientTransform="matrix(10.5 0 0 -4.2204 9760.3086 3689.6423)">
								<stop  offset="0" style="stop-color:#7A3D06"/>
								<stop  offset="1" style="stop-color:#A65806"/>
							</linearGradient>
							<path id="Path_441-6_1_" class="st91" d="M19.8,429.2h3.5c1.9,0,3.5,0.9,3.5,2.1c0,0.8-0.7,1.4-2.1,1.9
								c-0.4,0.1-0.9,0.2-1.4,0.2h-3.5c-1.9,0-3.5-0.9-3.5-2.1S17.9,429.2,19.8,429.2z"/>
						</g>
						<g transform="matrix(1, 0, 0, 1, -184.34, -120.14)">
							
								<linearGradient id="Path_469-6_2_" gradientUnits="userSpaceOnUse" x1="-926.997" y1="772.0524" x2="-927.566" y2="772.0504" gradientTransform="matrix(10.5 0 0 -4.2204 9760.3086 3709.2524)">
								<stop  offset="0" style="stop-color:#7A3D06"/>
								<stop  offset="1" style="stop-color:#A65806"/>
							</linearGradient>
							<path id="Path_469-6_1_" class="st92" d="M19.8,448.8h3.5c1.9,0,3.5,0.9,3.5,2.1c0,0.8-0.7,1.4-2.1,1.9
								c-0.4,0.1-0.9,0.2-1.4,0.2h-3.5c-1.9,0-3.5-0.9-3.5-2.1C16.3,449.7,17.9,448.8,19.8,448.8z"/>
						</g>
						<g transform="matrix(1, 0, 0, 1, -184.34, -120.14)">
							
								<linearGradient id="Path_462-6_2_" gradientUnits="userSpaceOnUse" x1="-926.997" y1="772.0619" x2="-927.5661" y2="772.0599" gradientTransform="matrix(10.5 0 0 -4.2204 9760.3086 3707.2922)">
								<stop  offset="0" style="stop-color:#7A3D06"/>
								<stop  offset="1" style="stop-color:#A65806"/>
							</linearGradient>
							<path id="Path_462-6_1_" class="st93" d="M19.8,446.8h3.5c1.9,0,3.5,0.9,3.5,2.1c0,0.8-0.7,1.4-2.1,1.9
								c-0.4,0.1-0.9,0.2-1.4,0.2h-3.5c-1.9,0-3.5-0.9-3.5-2.1C16.3,447.8,17.9,446.8,19.8,446.8z"/>
						</g>
						<g transform="matrix(1, 0, 0, 1, -184.34, -120.14)">
							
								<linearGradient id="Path_417-6_2_" gradientUnits="userSpaceOnUse" x1="-926.997" y1="772.0547" x2="-927.5661" y2="772.0528" gradientTransform="matrix(10.5 0 0 -4.2204 9760.3086 3673.4624)">
								<stop  offset="0" style="stop-color:#7A3D06"/>
								<stop  offset="1" style="stop-color:#A65806"/>
							</linearGradient>
							<path id="Path_417-6_1_" class="st94" d="M19.8,413h3.5c1.9,0,3.5,0.9,3.5,2.1c0,0.8-0.7,1.4-2.1,1.9
								c-0.4,0.1-0.9,0.2-1.4,0.2h-3.5c-1.9,0-3.5-0.9-3.5-2.1C16.3,414,17.9,413,19.8,413z"/>
						</g>
						<g transform="matrix(1, 0, 0, 1, -184.34, -120.14)">
							
								<linearGradient id="Path_418-6_2_" gradientUnits="userSpaceOnUse" x1="-926.997" y1="772.05" x2="-927.566" y2="772.048" gradientTransform="matrix(10.5 0 0 -4.2204 9760.3086 3674.4424)">
								<stop  offset="0" style="stop-color:#7A3D06"/>
								<stop  offset="1" style="stop-color:#A65806"/>
							</linearGradient>
							<path id="Path_418-6_1_" class="st95" d="M19.8,414h3.5c1.9,0,3.5,0.9,3.5,2.1c0,0.8-0.7,1.4-2.1,1.9
								c-0.4,0.1-0.9,0.2-1.4,0.2h-3.5c-1.9,0-3.5-0.9-3.5-2.1S17.9,414,19.8,414z"/>
						</g>
						<g transform="matrix(1, 0, 0, 1, -184.34, -120.14)">
							
								<linearGradient id="Subtraction_76-6_2_" gradientUnits="userSpaceOnUse" x1="-908.6375" y1="728.881" x2="-909.2064" y2="728.879" gradientTransform="matrix(8.54 0 0 -2.6 7785.6152 2325.6775)">
								<stop  offset="0" style="stop-color:#7A3D06"/>
								<stop  offset="1" style="stop-color:#A65806"/>
							</linearGradient>
							<path id="Subtraction_76-6_1_" class="st96" d="M17.4,431.9L17.4,431.9c-0.1-0.2-0.1-0.3-0.1-0.5c0-1.2,1.3-2.1,2.8-2.1H23
								c1.6,0,2.8,0.9,2.8,2.1c0,0.2,0,0.3-0.1,0.5c-0.5-1.1-1.6-1.7-2.8-1.6h-2.8C19,430.2,17.9,430.8,17.4,431.9L17.4,431.9z"/>
						</g>
						<g transform="matrix(1, 0, 0, 1, -184.34, -120.14)">
							
								<linearGradient id="Subtraction_74-6_2_" gradientUnits="userSpaceOnUse" x1="-908.6375" y1="728.8926" x2="-909.2065" y2="728.8906" gradientTransform="matrix(8.54 0 0 -2.6 7785.6152 2324.8076)">
								<stop  offset="0" style="stop-color:#7A3D06"/>
								<stop  offset="1" style="stop-color:#A65806"/>
							</linearGradient>
							<path id="Subtraction_74-6_1_" class="st97" d="M17.4,431L17.4,431c-0.1-0.2-0.1-0.3-0.1-0.5c0-1.2,1.3-2.1,2.8-2.1H23
								c1.6,0,2.8,0.9,2.8,2.1c0,0.2,0,0.3-0.1,0.5c-0.5-1.1-1.6-1.7-2.8-1.6h-2.8C19,429.3,17.9,429.9,17.4,431L17.4,431z"/>
						</g>
						<g transform="matrix(1, 0, 0, 1, -184.34, -120.14)">
							
								<linearGradient id="Subtraction_66-6_2_" gradientUnits="userSpaceOnUse" x1="-908.6375" y1="728.8773" x2="-909.2064" y2="728.8753" gradientTransform="matrix(8.54 0 0 -2.6 7785.6152 2311.3677)">
								<stop  offset="0" style="stop-color:#7A3D06"/>
								<stop  offset="1" style="stop-color:#A65806"/>
							</linearGradient>
							<path id="Subtraction_66-6_1_" class="st98" d="M17.4,417.6L17.4,417.6c-0.1-0.2-0.1-0.3-0.1-0.5c0-1.2,1.3-2.1,2.8-2.1H23
								c1.6,0,2.8,0.9,2.8,2.1c0,0.2,0,0.3-0.1,0.5c-0.5-1.1-1.6-1.7-2.8-1.6h-2.8C19,415.9,17.9,416.5,17.4,417.6L17.4,417.6z"/>
						</g>
						<g transform="matrix(1, 0, 0, 1, -184.34, -120.14)">
							
								<linearGradient id="Subtraction_67-6_2_" gradientUnits="userSpaceOnUse" x1="-908.6375" y1="728.8849" x2="-909.2065" y2="728.883" gradientTransform="matrix(8.54 0 0 -2.6 7785.6152 2310.3877)">
								<stop  offset="0" style="stop-color:#7A3D06"/>
								<stop  offset="1" style="stop-color:#A65806"/>
							</linearGradient>
							<path id="Subtraction_67-6_1_" class="st99" d="M17.4,416.6L17.4,416.6c-0.1-0.2-0.1-0.3-0.1-0.5c0-1.2,1.3-2.1,2.8-2.1H23
								c1.6,0,2.8,0.9,2.8,2.1c0,0.2,0,0.3-0.1,0.5c-0.5-1.1-1.6-1.7-2.8-1.6h-2.8C19,414.9,17.9,415.5,17.4,416.6L17.4,416.6z"/>
						</g>
						<g transform="matrix(1, 0, 0, 1, -184.34, -120.14)">
							
								<linearGradient id="Subtraction_68-6_2_" gradientUnits="userSpaceOnUse" x1="-908.6375" y1="728.8927" x2="-909.2065" y2="728.8907" gradientTransform="matrix(8.54 0 0 -2.6 7785.6152 2309.4077)">
								<stop  offset="0" style="stop-color:#7A3D06"/>
								<stop  offset="1" style="stop-color:#A65806"/>
							</linearGradient>
							<path id="Subtraction_68-6_1_" class="st100" d="M17.4,415.6L17.4,415.6c-0.1-0.2-0.1-0.3-0.1-0.5c0-1.2,1.3-2.1,2.8-2.1H23
								c1.6,0,2.8,0.9,2.8,2.1c0,0.2,0,0.3-0.1,0.5c-0.5-1.1-1.6-1.7-2.8-1.6h-2.8C19,413.9,17.9,414.5,17.4,415.6L17.4,415.6z"/>
						</g>
						<g transform="matrix(1, 0, 0, 1, -184.34, -120.14)">
							
								<linearGradient id="Subtraction_69-6_2_" gradientUnits="userSpaceOnUse" x1="-908.6375" y1="728.9003" x2="-909.2065" y2="728.8983" gradientTransform="matrix(8.54 0 0 -2.6 7785.6152 2308.4275)">
								<stop  offset="0" style="stop-color:#7A3D06"/>
								<stop  offset="1" style="stop-color:#A65806"/>
							</linearGradient>
							<path id="Subtraction_69-6_1_" class="st101" d="M17.4,414.6L17.4,414.6c-0.1-0.2-0.1-0.3-0.1-0.5c0-1.2,1.3-2.1,2.8-2.1H23
								c1.6,0,2.8,0.9,2.8,2.1c0,0.2,0,0.3-0.1,0.5c-0.5-1.1-1.6-1.7-2.8-1.6h-2.8C19,412.9,17.9,413.6,17.4,414.6L17.4,414.6z"/>
						</g>
						
							<linearGradient id="Path_435-3_1_" gradientUnits="userSpaceOnUse" x1="-1440.2739" y1="713.7769" x2="-1440.8429" y2="713.7748" gradientTransform="matrix(7.015 0 0 -39.7 9944.2012 28649.0117)">
							<stop  offset="0" style="stop-color:#7A3D06"/>
							<stop  offset="1" style="stop-color:#A65806"/>
						</linearGradient>
						<path id="Path_435-3" class="st102" d="M-166.3,292.3h7V332h-7V292.3z"/>
						<g transform="matrix(1, 0, 0, 1, -184.34, -120.14)">
							
								<linearGradient id="Subtraction_79-6_2_" gradientUnits="userSpaceOnUse" x1="-908.6368" y1="729.0179" x2="-909.2058" y2="729.0159" gradientTransform="matrix(8.54 0 0 -2.6024 7785.6147 2329.1345)">
								<stop  offset="0" style="stop-color:#7A3D06"/>
								<stop  offset="1" style="stop-color:#A65806"/>
							</linearGradient>
							<path id="Subtraction_79-6_1_" class="st103" d="M23,433.3h-2.8c-1.6,0-2.8-0.9-2.8-2.1c0-0.2,0-0.3,0.1-0.5
								c0.5,1.1,1.6,1.7,2.8,1.6H23c0.4,0,0.7,0,1.1-0.2c0.7-0.2,1.3-0.8,1.7-1.5c0.1,0.2,0.1,0.3,0.1,0.5c0,0.8-0.6,1.4-1.7,1.9
								C23.8,433.3,23.4,433.3,23,433.3z"/>
						</g>
						<g transform="matrix(1, 0, 0, 1, -184.34, -120.14)">
							
								<linearGradient id="Subtraction_83-6_2_" gradientUnits="userSpaceOnUse" x1="-908.6369" y1="729.0255" x2="-909.2058" y2="729.0234" gradientTransform="matrix(8.54 0 0 -2.6024 7785.6147 2330.8545)">
								<stop  offset="0" style="stop-color:#7A3D06"/>
								<stop  offset="1" style="stop-color:#A65806"/>
							</linearGradient>
							<path id="Subtraction_83-6_1_" class="st104" d="M23,435h-2.8c-1.6,0-2.8-0.9-2.8-2.1c0-0.2,0-0.3,0.1-0.5
								c0.5,1.1,1.6,1.7,2.8,1.6H23c0.4,0,0.7,0,1.1-0.2c0.7-0.2,1.3-0.8,1.7-1.5c0.1,0.2,0.1,0.3,0.1,0.5c0,0.8-0.6,1.4-1.7,1.9
								C23.8,435,23.4,435,23,435z"/>
						</g>
						<g transform="matrix(1, 0, 0, 1, -184.34, -120.14)">
							
								<linearGradient id="Subtraction_81-6_2_" gradientUnits="userSpaceOnUse" x1="-908.6368" y1="729.0024" x2="-909.2058" y2="729.0004" gradientTransform="matrix(8.54 0 0 -2.6024 7785.6147 2329.9944)">
								<stop  offset="0" style="stop-color:#7A3D06"/>
								<stop  offset="1" style="stop-color:#A65806"/>
							</linearGradient>
							<path id="Subtraction_81-6_1_" class="st105" d="M23,434.2h-2.8c-1.6,0-2.8-0.9-2.8-2.1c0-0.2,0-0.3,0.1-0.5
								c0.5,1.1,1.6,1.7,2.8,1.6H23c0.4,0,0.7,0,1.1-0.2c0.7-0.2,1.3-0.8,1.7-1.5c0.1,0.2,0.1,0.3,0.1,0.5c0,0.8-0.6,1.4-1.7,1.9
								C23.8,434.1,23.4,434.2,23,434.2z"/>
						</g>
						<g transform="matrix(1, 0, 0, 1, -184.34, -120.14)">
							
								<linearGradient id="Subtraction_77-6_2_" gradientUnits="userSpaceOnUse" x1="-908.6369" y1="729.0259" x2="-909.2058" y2="729.0239" gradientTransform="matrix(8.54 0 0 -2.6024 7785.6147 2328.2744)">
								<stop  offset="0" style="stop-color:#7A3D06"/>
								<stop  offset="1" style="stop-color:#A65806"/>
							</linearGradient>
							<path id="Subtraction_77-6_1_" class="st106" d="M23,432.4h-2.8c-1.6,0-2.8-0.9-2.8-2.1c0-0.2,0-0.3,0.1-0.5
								c0.5,1.1,1.6,1.7,2.8,1.6H23c0.4,0,0.7,0,1.1-0.2c0.7-0.2,1.3-0.8,1.7-1.5c0.1,0.2,0.1,0.3,0.1,0.5c0,0.8-0.6,1.4-1.7,1.9
								C23.8,432.4,23.4,432.5,23,432.4z"/>
						</g>
						<g transform="matrix(1, 0, 0, 1, -184.34, -120.14)">
							
								<linearGradient id="Subtraction_87-6_2_" gradientUnits="userSpaceOnUse" x1="-908.6369" y1="729.026" x2="-909.2058" y2="729.024" gradientTransform="matrix(8.54 0 0 -2.6024 7785.6147 2347.8745)">
								<stop  offset="0" style="stop-color:#7A3D06"/>
								<stop  offset="1" style="stop-color:#A65806"/>
							</linearGradient>
							<path id="Subtraction_87-6_1_" class="st107" d="M23,452h-2.8c-1.6,0-2.8-0.9-2.8-2.1c0-0.2,0-0.3,0.1-0.5
								c0.5,1.1,1.6,1.7,2.8,1.6H23c0.4,0,0.7,0,1.1-0.2c0.7-0.2,1.3-0.8,1.7-1.5c0.1,0.2,0.1,0.3,0.1,0.5c0,0.8-0.6,1.4-1.7,1.9
								C23.8,452,23.4,452.1,23,452z"/>
						</g>
						<g transform="matrix(1, 0, 0, 1, -184.34, -120.14)">
							
								<linearGradient id="Subtraction_85-6_2_" gradientUnits="userSpaceOnUse" x1="-908.6368" y1="729.0025" x2="-909.2058" y2="729.0005" gradientTransform="matrix(8.54 0 0 -2.6024 7785.6147 2346.8945)">
								<stop  offset="0" style="stop-color:#7A3D06"/>
								<stop  offset="1" style="stop-color:#A65806"/>
							</linearGradient>
							<path id="Subtraction_85-6_1_" class="st108" d="M23,451.1h-2.8c-1.6,0-2.8-0.9-2.8-2.1c0-0.2,0-0.3,0.1-0.5
								c0.5,1.1,1.6,1.7,2.8,1.6H23c0.4,0,0.7,0,1.1-0.2c0.7-0.2,1.3-0.8,1.7-1.5c0.1,0.2,0.1,0.3,0.1,0.5c0,0.8-0.6,1.4-1.7,1.9
								C23.8,451,23.4,451.1,23,451.1z"/>
						</g>
						<g transform="matrix(1, 0, 0, 1, -184.34, -120.14)">
							
								<linearGradient id="Subtraction_78-6_2_" gradientUnits="userSpaceOnUse" x1="-908.6369" y1="729.0259" x2="-909.2058" y2="729.0239" gradientTransform="matrix(8.54 0 0 -2.6024 7785.6147 2328.2744)">
								<stop  offset="0" style="stop-color:#7A3D06"/>
								<stop  offset="1" style="stop-color:#A65806"/>
							</linearGradient>
							<path id="Subtraction_78-6_1_" class="st109" d="M23,432.4h-2.8c-1.6,0-2.8-0.9-2.8-2.1c0-0.2,0-0.3,0.1-0.5
								c0.5,1.1,1.6,1.7,2.8,1.6H23c0.4,0,0.7,0,1.1-0.2c0.7-0.2,1.3-0.8,1.7-1.5c0.1,0.2,0.1,0.3,0.1,0.5c0,0.8-0.6,1.4-1.7,1.9
								C23.8,432.4,23.4,432.5,23,432.4z"/>
						</g>
						<g transform="matrix(1, 0, 0, 1, -184.34, -120.14)">
							
								<linearGradient id="Subtraction_82-6_2_" gradientUnits="userSpaceOnUse" x1="-908.6368" y1="729.0024" x2="-909.2058" y2="729.0004" gradientTransform="matrix(8.54 0 0 -2.6024 7785.6147 2329.9944)">
								<stop  offset="0" style="stop-color:#7A3D06"/>
								<stop  offset="1" style="stop-color:#A65806"/>
							</linearGradient>
							<path id="Subtraction_82-6_1_" class="st110" d="M23,434.2h-2.8c-1.6,0-2.8-0.9-2.8-2.1c0-0.2,0-0.3,0.1-0.5
								c0.5,1.1,1.6,1.7,2.8,1.6H23c0.4,0,0.7,0,1.1-0.2c0.7-0.2,1.3-0.8,1.7-1.5c0.1,0.2,0.1,0.3,0.1,0.5c0,0.8-0.6,1.4-1.7,1.9
								C23.8,434.1,23.4,434.2,23,434.2z"/>
						</g>
						<g transform="matrix(1, 0, 0, 1, -184.34, -120.14)">
							
								<linearGradient id="Subtraction_80-6_2_" gradientUnits="userSpaceOnUse" x1="-908.6368" y1="729.0179" x2="-909.2058" y2="729.0159" gradientTransform="matrix(8.54 0 0 -2.6024 7785.6147 2329.1345)">
								<stop  offset="0" style="stop-color:#7A3D06"/>
								<stop  offset="1" style="stop-color:#A65806"/>
							</linearGradient>
							<path id="Subtraction_80-6_1_" class="st111" d="M23,433.3h-2.8c-1.6,0-2.8-0.9-2.8-2.1c0-0.2,0-0.3,0.1-0.5
								c0.5,1.1,1.6,1.7,2.8,1.6H23c0.4,0,0.7,0,1.1-0.2c0.7-0.2,1.3-0.8,1.7-1.5c0.1,0.2,0.1,0.3,0.1,0.5c0,0.8-0.6,1.4-1.7,1.9
								C23.8,433.3,23.4,433.3,23,433.3z"/>
						</g>
						<g transform="matrix(1, 0, 0, 1, -184.34, -120.14)">
							
								<linearGradient id="Subtraction_75-6_2_" gradientUnits="userSpaceOnUse" x1="-908.6368" y1="729.0102" x2="-909.2058" y2="729.0082" gradientTransform="matrix(8.54 0 0 -2.6024 7785.6147 2327.4146)">
								<stop  offset="0" style="stop-color:#7A3D06"/>
								<stop  offset="1" style="stop-color:#A65806"/>
							</linearGradient>
							<path id="Subtraction_75-6_1_" class="st112" d="M23,431.6h-2.8c-1.6,0-2.8-0.9-2.8-2.1c0-0.2,0-0.3,0.1-0.5
								c0.5,1.1,1.6,1.7,2.8,1.6H23c0.4,0,0.7,0,1.1-0.2c0.7-0.2,1.3-0.8,1.7-1.5c0.1,0.2,0.1,0.3,0.1,0.5c0,0.8-0.6,1.4-1.7,1.9
								C23.8,431.5,23.4,431.6,23,431.6z"/>
						</g>
						<g transform="matrix(1, 0, 0, 1, -184.34, -120.14)">
							
								<linearGradient id="Subtraction_86-6_2_" gradientUnits="userSpaceOnUse" x1="-908.6368" y1="729.0025" x2="-909.2058" y2="729.0005" gradientTransform="matrix(8.54 0 0 -2.6024 7785.6147 2346.8945)">
								<stop  offset="0" style="stop-color:#7A3D06"/>
								<stop  offset="1" style="stop-color:#A65806"/>
							</linearGradient>
							<path id="Subtraction_86-6_1_" class="st113" d="M23,451.1h-2.8c-1.6,0-2.8-0.9-2.8-2.1c0-0.2,0-0.3,0.1-0.5
								c0.5,1.1,1.6,1.7,2.8,1.6H23c0.4,0,0.7,0,1.1-0.2c0.7-0.2,1.3-0.8,1.7-1.5c0.1,0.2,0.1,0.3,0.1,0.5c0,0.8-0.6,1.4-1.7,1.9
								C23.8,451,23.4,451.1,23,451.1z"/>
						</g>
						<g transform="matrix(1, 0, 0, 1, -184.34, -120.14)">
							
								<linearGradient id="Subtraction_84-6_2_" gradientUnits="userSpaceOnUse" x1="-908.6368" y1="729.0102" x2="-909.2058" y2="729.0082" gradientTransform="matrix(8.54 0 0 -2.6024 7785.6147 2345.9146)">
								<stop  offset="0" style="stop-color:#7A3D06"/>
								<stop  offset="1" style="stop-color:#A65806"/>
							</linearGradient>
							<path id="Subtraction_84-6_1_" class="st114" d="M23,450.1h-2.8c-1.6,0-2.8-0.9-2.8-2.1c0-0.2,0-0.3,0.1-0.5
								c0.5,1.1,1.6,1.7,2.8,1.6H23c0.4,0,0.7,0,1.1-0.2c0.7-0.2,1.3-0.8,1.7-1.5c0.1,0.2,0.1,0.3,0.1,0.5c0,0.8-0.6,1.4-1.7,1.9
								C23.8,450,23.4,450.1,23,450.1z"/>
						</g>
						<g transform="matrix(1, 0, 0, 1, -184.34, -120.14)">
							
								<linearGradient id="Subtraction_70-6_2_" gradientUnits="userSpaceOnUse" x1="-908.6368" y1="729.0101" x2="-909.2058" y2="729.0081" gradientTransform="matrix(8.54 0 0 -2.6024 7785.6147 2315.0144)">
								<stop  offset="0" style="stop-color:#7A3D06"/>
								<stop  offset="1" style="stop-color:#A65806"/>
							</linearGradient>
							<path id="Subtraction_70-6_1_" class="st115" d="M23,419.2h-2.8c-1.6,0-2.8-0.9-2.8-2.1c0-0.2,0-0.3,0.1-0.5
								c0.5,1.1,1.6,1.7,2.8,1.6H23c0.4,0,0.7,0,1.1-0.2c0.7-0.2,1.3-0.8,1.7-1.5c0.1,0.2,0.1,0.3,0.1,0.5c0,0.8-0.6,1.4-1.7,1.9
								C23.8,419.1,23.4,419.2,23,419.2z"/>
						</g>
						<g transform="matrix(1, 0, 0, 1, -184.34, -120.14)">
							
								<linearGradient id="Subtraction_71-6_2_" gradientUnits="userSpaceOnUse" x1="-908.6368" y1="729.0178" x2="-909.2058" y2="729.0158" gradientTransform="matrix(8.54 0 0 -2.6024 7785.6147 2314.0344)">
								<stop  offset="0" style="stop-color:#7A3D06"/>
								<stop  offset="1" style="stop-color:#A65806"/>
							</linearGradient>
							<path id="Subtraction_71-6_1_" class="st116" d="M23,418.2h-2.8c-1.6,0-2.8-0.9-2.8-2.1c0-0.2,0-0.3,0.1-0.5
								c0.5,1.1,1.6,1.7,2.8,1.6H23c0.4,0,0.7,0,1.1-0.2c0.7-0.2,1.3-0.8,1.7-1.5c0.1,0.2,0.1,0.3,0.1,0.5c0,0.8-0.6,1.4-1.7,1.9
								C23.8,418.2,23.4,418.2,23,418.2z"/>
						</g>
						<g transform="matrix(1, 0, 0, 1, -184.34, -120.14)">
							
								<linearGradient id="Subtraction_72-6_2_" gradientUnits="userSpaceOnUse" x1="-908.6369" y1="729.0294" x2="-909.2058" y2="729.0273" gradientTransform="matrix(8.54 0 0 -2.6024 7785.6147 2313.0645)">
								<stop  offset="0" style="stop-color:#7A3D06"/>
								<stop  offset="1" style="stop-color:#A65806"/>
							</linearGradient>
							<path id="Subtraction_72-6_1_" class="st117" d="M23,417.2h-2.8c-1.6,0-2.8-0.9-2.8-2.1c0-0.2,0-0.3,0.1-0.5
								c0.5,1.1,1.6,1.7,2.8,1.6H23c0.4,0,0.7,0,1.1-0.2c0.7-0.2,1.3-0.8,1.7-1.5c0.1,0.2,0.1,0.3,0.1,0.5c0,0.8-0.6,1.4-1.7,1.9
								C23.8,417.2,23.4,417.2,23,417.2z"/>
						</g>
						<g transform="matrix(1, 0, 0, 1, -184.34, -120.14)">
							
								<linearGradient id="Subtraction_73-6_2_" gradientUnits="userSpaceOnUse" x1="-908.6368" y1="728.9986" x2="-909.2058" y2="728.9966" gradientTransform="matrix(8.54 0 0 -2.6024 7785.6147 2312.0845)">
								<stop  offset="0" style="stop-color:#7A3D06"/>
								<stop  offset="1" style="stop-color:#A65806"/>
							</linearGradient>
							<path id="Subtraction_73-6_1_" class="st118" d="M23,416.3h-2.8c-1.6,0-2.8-0.9-2.8-2.1c0-0.2,0-0.3,0.1-0.5
								c0.5,1.1,1.6,1.7,2.8,1.6H23c0.4,0,0.7,0,1.1-0.2c0.7-0.2,1.3-0.8,1.7-1.5c0.1,0.2,0.1,0.3,0.1,0.5c0,0.8-0.6,1.4-1.7,1.9
								C23.8,416.2,23.4,416.3,23,416.3z"/>
						</g>
					</g>
					<path id="Path_581_1_" class="st119" d="M-52.9,392.6l-2.6-1.5v-39.9l2.7-1.7L-52.9,392.6z"/>
					<path id="Union_14_1_" class="st4" d="M-99.6,372.8L-99.6,372.8l-47.9-27.4l48.7-28.5l47.7,27.5l0.2-0.1l48.7,28l-48.7,28.1
						L-99.6,372.8z"/>
					<path id="Subtraction_98_1_" class="st120" d="M-50.9,404.3L-50.9,404.3v-3.9l48.7-28v3l-5.9,3.5v0.1l-41.1,24.4h-0.1
						L-50.9,404.3L-50.9,404.3L-50.9,404.3L-50.9,404.3z"/>
					<path id="Subtraction_96_1_" class="st5" d="M-50.9,404.2L-50.9,404.2l-2.8-1.8l0,0l-0.4-0.3l-0.5-0.3l0,0l-42.2-25l0,0
						l-10.7-6.4l-37.6-21.3l-2.4-1.3v-2.5c0.1,0.1,4.4,2.5,10.3,5.8c12.6,7.1,31.5,17.9,37,21V372l8.9,5.1l10.2,5.8l12.5,7.2
						c9.3,5.3,17.4,10,17.8,10.2L-50.9,404.2L-50.9,404.2z"/>
					<path id="Union_16_1_" class="st121" d="M-96.9,371.1L-96.9,371.1l-45.9-25.6l43.9-25.3l5,2.9l40.3,23l0.1-0.1l46.7,26.3
						l-44.3,25L-96.9,371.1z"/>
					<g id="Group_290_1_" transform="translate(0 60.831)">
						<path id="Path_478_1_" class="st4" d="M-133.2,310.7h0.5l25.9,14.5l-29.6,15.4l-26.2-15.2"/>
						<path id="Path_338_1_" class="st1" d="M-168,358.2l32.5,18.7l32.4-18.7l-32.4-18.9L-168,358.2z"/>
						<path id="Path_287_1_" class="st5" d="M-113,330.8l3.6-1.4v30.2l-3.5-1.7L-113,330.8L-113,330.8z"/>
						<path id="Path_288_1_" class="st122" d="M-133.4,312.6h0.4l22.5,12.6l-25.7,13.4l-22.8-13.2L-133.4,312.6z"/>
						<path id="Path_285_1_" class="st120" d="M-158.9,331.4v26.8l-2.4,0.9v-28.7L-158.9,331.4z"/>
						<path id="Subtraction_41_1_" class="st5" d="M-135.2,374.5L-135.2,374.5l-3.3-1.5v-29.6l-22.8-13.1V359l-3-0.8l0.8-65.4
							c1.6,2.7,3.6,5.1,6.1,7.1c4,3.4,11.1,7.7,22.1,9.1C-134.8,322-135.2,374-135.2,374.5L-135.2,374.5z M-160.8,302.7
							L-160.8,302.7V326c0,0.4,22.7,12.3,22.9,12.5v-25L-160.8,302.7z"/>
						<path id="Path_286_1_" class="st120" d="M-133.1,307.4l-2.1,1.5v65.5l2.3-1.5l-0.2-30.5l23.6-12.7v29.8l2.7-1.2v-33.1
							l-26.3,13.4V307.4z"/>
						<path id="Path_289_1_" class="st120" d="M-161.1,291.9c-0.8,0.2-1.6,0.5-2.3,0.9c-0.6,0.3,11,14.2,28.2,16.2
							c1.6-0.9,0.5-0.3,2.1-1.5C-143.8,305.2-153.6,299.8-161.1,291.9z"/>
						<path id="Path_314_1_" class="st123" d="M-135.5,309"/>
						<path id="Path_317_1_" class="st120" d="M-159.3,323.7l-0.2-19.8l-1.5-0.5l0.2,21L-159.3,323.7z"/>
						<path id="Path_322_1_" class="st5" d="M-163.6,303.6c-0.1,0.8,0,3.7,0,6.1c4.2,5.5,19.3,14.4,27.4,14.3c0.1-1.2,0.1,2.7,0-4.3
							C-141.9,319.6-159.2,310.1-163.6,303.6z"/>
						<path id="Path_323_1_" class="st5" d="M-163.6,312.4c0,0.8,0,3.7,0,6.1c4.1,5.5,19.1,14.4,27.1,14.3c0.1-1.2,0.1,2.7,0-4.3
							C-142.1,328.3-159.3,318.9-163.6,312.4z"/>
						<path id="Path_324_1_" class="st5" d="M-163.4,292.8c-0.1,0.8-0.1,6-0.2,8.3c4.4,5.5,19.9,14.5,28.4,14.4
							c0.1-1.2,0.2,0.4,0.1-6.6C-141.1,308.8-158.8,299.3-163.4,292.8z"/>
					</g>
					<g id="Group_291_1_" transform="translate(43.972 89.169)">
						<path id="Path_478-2_1_" class="st4" d="M-133.2,310.7h0.5l25.9,14.5l-29.6,15.4l-26.2-15.2"/>
						<path id="Path_338-2_1_" class="st1" d="M-168,358.2l32.5,18.7l32.4-18.7l-32.4-18.9L-168,358.2z"/>
						<path id="Path_287-2_1_" class="st5" d="M-113,330.8l3.6-1.4v30.2l-3.5-1.7L-113,330.8L-113,330.8z"/>
						<path id="Path_288-2_1_" class="st122" d="M-133.4,312.6h0.4l22.5,12.6l-25.7,13.4l-22.8-13.2L-133.4,312.6z"/>
						<path id="Path_285-2_1_" class="st120" d="M-158.9,331.4v26.8l-2.4,0.9v-28.7L-158.9,331.4z"/>
						<path id="Subtraction_41-2_1_" class="st5" d="M-135.2,374.5L-135.2,374.5l-3.3-1.5v-29.6l-22.8-13.1V359l-3-0.8l0.8-65.4
							c1.6,2.7,3.6,5.1,6.1,7.1c4,3.4,11.1,7.7,22.1,9.1C-134.8,322-135.2,374-135.2,374.5L-135.2,374.5z M-160.8,302.7
							L-160.8,302.7V326c0,0.4,22.7,12.3,22.9,12.5v-25L-160.8,302.7z"/>
						<path id="Path_286-2_1_" class="st120" d="M-133.1,307.4l-2.1,1.5v65.5l2.3-1.5l-0.2-30.5l23.6-12.7v29.8l2.7-1.2v-33.1
							l-26.3,13.4V307.4z"/>
						<path id="Path_289-2_1_" class="st120" d="M-161.1,291.9c-0.8,0.2-1.6,0.5-2.3,0.9c-0.6,0.3,11,14.2,28.2,16.2
							c1.6-0.9,0.5-0.3,2.1-1.5C-143.8,305.2-153.6,299.8-161.1,291.9z"/>
						<path id="Path_314-2_1_" class="st123" d="M-135.5,309"/>
						<path id="Path_317-2_1_" class="st120" d="M-159.3,323.7l-0.2-19.8l-1.5-0.5l0.2,21L-159.3,323.7z"/>
						<path id="Path_322-2_1_" class="st5" d="M-163.6,303.6c-0.1,0.8,0,3.7,0,6.1c4.2,5.5,19.3,14.4,27.4,14.3
							c0.1-1.2,0.1,2.7,0-4.3C-141.9,319.6-159.2,310.1-163.6,303.6z"/>
						<path id="Path_323-2_1_" class="st5" d="M-163.6,312.4c0,0.8,0,3.7,0,6.1c4.1,5.5,19.1,14.4,27.1,14.3c0.1-1.2,0.1,2.7,0-4.3
							C-142.1,328.3-159.3,318.9-163.6,312.4z"/>
						<path id="Path_324-2_1_" class="st5" d="M-163.4,292.8c-0.1,0.8-0.1,6-0.2,8.3c4.4,5.5,19.9,14.5,28.4,14.4
							c0.1-1.2,0.2,0.4,0.1-6.6C-141.1,308.8-158.8,299.3-163.4,292.8z"/>
					</g>
					<g id="Group_294_1_" transform="translate(129.221 91.992)">
						<path id="Path_331_1_" class="st10" d="M-112.5,329l0.3-26.9l2.3-1.7l0.1,27.1L-112.5,329z"/>
						<path id="Path_550_1_" class="st4" d="M-109.6,327.6l-26.1-14.6l-28.3,13l26.8,15.4L-109.6,327.6z"/>
						<path id="Path_549_1_" class="st122" d="M-114.5,327.5l-21.4-12l-23.2,10.7l22,12.6L-114.5,327.5z"/>
						<path id="Path_337_1_" class="st1" d="M-135.5,378.1l-32.5-18.5l32.5-18.6l32.1,18.6L-135.5,378.1z"/>
						<path id="Path_278_1_" class="st9" d="M-112.2,332.8v26.8l2.5,1v-29.1L-112.2,332.8z"/>
						<path id="Path_273_1_" class="st124" d="M-138.5,374.5V308l3,1.3v65.8L-138.5,374.5z"/>
						<path id="Subtraction_43_1_" class="st125" d="M-135.5,375.2v-65.8l28.8-16.1c0,0.7-0.1,65.5,0,65.9c0,0,0,0,0,0.1
							c-0.2,0.4-3,1.2-3,1.2v-28.8l-23.8,12.2v30.3L-135.5,375.2L-135.5,375.2z M-109.9,300.5L-109.9,300.5
							c-0.2,0.1-0.6,0.4-1.1,0.7c-6.8,5-14.4,8.8-22.4,11.2c0,11.1-0.1,26.8-0.1,26.9l23.7-11.8c0,0,0-0.4,0-0.9
							C-109.9,308.7-109.9,302.5-109.9,300.5L-109.9,300.5z"/>
						<path id="Path_275_1_" class="st125" d="M-161.1,330.8v29.9l3-1.7c0,0,0.4-27.4,0-27.5S-161.1,330.8-161.1,330.8z"/>
						<path id="Path_276_1_" class="st124" d="M-138.4,344.3c-0.2-0.2-22.7-13.2-22.7-13.2v29.7l-3.1-1.5l0.3-33.3l25.5,14.3V344.3z
							"/>
						<path id="Path_277_1_" class="st4" d="M-135.5,309.4c-1.1-0.3-2.1-0.7-3-1.3c0,0,22.7-9.3,28.7-16.2c2.6,0.7,3,1.4,3,1.4
							S-122.5,306.8-135.5,309.4z"/>
						<path id="Path_334_1_" class="st125" d="M-133.4,319.7c6.1-0.4,19.5-6.2,23.7-11.3c0-0.9-0.1-1,0-3.7
							c-2.2,2.4-12.3,10.1-23.7,12.1V319.7z"/>
						<path id="Path_335_1_" class="st125" d="M-133.4,327.6c6.1-0.4,19.6-6.2,23.9-11.3c0-0.9-0.1-1,0-3.7
							c-2.2,2.4-12.4,10.1-23.9,12.1V327.6z"/>
					</g>
				</g>
			</g>
		</g>
	</g>
</g>
</svg>
